<svg width="308" height="295" viewBox="0 0 308 295" fill="none" xmlns="http://www.w3.org/2000/svg">
<path d="M120.038 55.7083C123.33 55.9635 129.46 52.401 128.476 50.7969C128.038 50.0938 128.205 49.9219 128.908 50.3438C129.554 50.7448 132.132 49.0365 134.84 46.3958L139.643 41.7344L142.101 44.1875C143.445 45.5365 144.856 48.1875 145.236 50.0833C145.747 52.6458 146.82 53.9635 149.455 55.2917C151.398 56.276 153.778 57.0677 154.736 57.0729C159.116 57.0729 160.481 46.2448 156.538 42.8177C155.252 41.7031 153.82 40.8021 153.346 40.8021C152.872 40.8021 152.486 39.9115 152.486 38.8229C152.486 37.7396 152.028 36.5677 151.471 36.224C150.913 35.8802 150.007 34.7552 149.455 33.7188C148.658 32.2396 149.054 31.2448 151.351 28.9427C158.788 21.5 163.377 11.2969 159.283 11.2969C158.616 11.2969 154.7 14.0625 150.564 17.4375C143.611 23.125 140.377 24.5104 141.064 21.5156C141.247 20.7396 140.632 20.526 139.408 20.9115C138.028 21.3542 137.325 20.9375 136.939 19.4687C136.153 16.4687 132.059 15.1719 129.986 17.2708C127.96 19.3021 128.169 20.651 131.45 26.8125C133.669 31 133.82 31.8437 132.57 33.099C131.778 33.8906 131.122 35.0885 131.122 35.7448C131.122 36.4115 130.419 36.6771 129.549 36.3385C128.674 36.0052 128.205 36.1198 128.497 36.5885C128.788 37.0625 126.523 40.0937 123.465 43.3281C120.403 46.5625 117.835 50.0677 117.747 51.1094C117.663 52.151 117.549 53.5677 117.491 54.2604C117.439 54.9427 118.58 55.5938 120.038 55.7083Z" fill="white"/>
<path d="M229.731 25.5365C230.32 25.5365 230.809 25.9948 230.809 26.5573C230.809 27.1198 230.606 27.5677 230.356 27.5677C230.111 27.5677 229.627 27.1198 229.278 26.5573C228.934 25.9948 229.143 25.5365 229.731 25.5365ZM236.309 27.5052C236.82 27.599 237.611 27.0781 238.07 26.3542C238.7 25.3698 238.919 25.5 238.934 26.8542C238.939 27.8646 239.512 28.6042 240.21 28.5156C244.757 27.9271 248.559 30.2656 247.512 33.0104C247.127 34.0156 244.294 35.9531 241.226 37.3125C238.153 38.6667 234.877 39.7812 233.934 39.7812C230.044 39.7812 228.653 35.2552 230.971 30.1615C232.033 27.8229 233.679 27.0052 236.309 27.5052ZM232.908 50.6562C233.992 50.375 234.877 50.5052 234.877 50.9479C234.877 52.4635 243.523 51.401 246.32 49.5417C247.856 48.5208 249.117 47.3437 249.117 46.9167C249.117 46.5 249.929 46.2031 250.929 46.2708C251.929 46.3385 254.788 44.3542 257.288 41.8698C259.788 39.3854 261.257 37.6979 260.559 38.1198C259.861 38.5365 259.294 38.3958 259.294 37.8073C259.294 37.2135 259.747 36.7292 260.304 36.7292C262.075 36.7292 261.528 26.776 259.705 25.75C258.82 25.2552 258.075 24.4271 258.059 23.9219C258.007 22.3177 255.575 19.4167 254.877 20.1146C254.502 20.4896 254.2 20.2917 254.2 19.6823C254.2 18.1042 247.976 16.2552 243.637 16.5469C241.617 16.6875 239.955 17.0729 239.955 17.4062C239.955 17.7448 237.674 17.9687 234.877 17.9063C232.075 17.849 229.788 18.2031 229.788 18.6823C229.788 19.1615 229.361 19.2865 228.835 18.9687C227.83 18.3385 219.622 25.8385 219.622 27.3698C219.622 27.875 220.648 28.7813 221.908 29.3854C223.809 30.3021 223.882 30.5 222.351 30.5573C221.346 30.5937 220.799 31.0885 221.158 31.6562C221.507 32.224 222.335 32.3698 222.992 31.9687C223.679 31.5625 223.596 31.9896 222.794 32.974C222.033 33.9219 220.747 34.6927 219.95 34.6927C217.689 34.6927 218.773 41.776 221.622 45.6302C224.179 49.0885 229.627 51.5156 232.908 50.6562Z" fill="white"/>
<path d="M54.2518 240.307C53.606 241.354 51.3977 241.5 50.4498 240.557C49.2779 239.38 50.7258 238.339 52.7883 238.875C53.9029 239.167 54.5591 239.813 54.2518 240.307ZM39.9445 233.589C39.6268 232.75 38.955 232.318 38.455 232.625C37.9498 232.938 37.5435 232.677 37.5435 232.052C37.5435 231.427 37.1998 231.125 36.7779 231.38C36.356 231.635 35.1893 230.75 34.1841 229.406C33.1268 227.995 32.8456 226.964 33.507 226.964C34.1425 226.964 34.4706 226.401 34.2362 225.698C33.6477 223.932 38.0695 213.401 39.6112 212.88C40.3039 212.651 40.58 212.932 40.2258 213.516C39.5539 214.599 47.5748 217.807 50.9758 217.807C56.0383 217.807 53.9758 229.729 48.3196 233.182C44.5331 235.484 40.7466 235.672 39.9445 233.589ZM61.1893 208.401C60.4862 208.542 59.9185 208.234 59.9185 207.719C59.9185 206.818 55.856 205.599 50.9706 205.031C49.6841 204.875 47.9446 204.177 47.1008 203.479C43.9185 200.839 31.4393 202.365 31.4393 205.385C31.4393 205.802 30.4185 206.589 29.1737 207.141C26.5852 208.286 23.4914 213.875 22.6893 218.828C22.5539 219.667 21.9966 221.781 21.4602 223.526C20.9133 225.266 20.8456 227.307 21.3143 228.052C21.7727 228.802 21.9237 229.776 21.6477 230.224C21.3716 230.677 21.5123 231.609 21.955 232.307C22.3977 233.005 22.7623 233.87 22.7779 234.229C22.8195 236.031 29.9237 244.479 32.5227 245.823C34.1633 246.672 35.5123 247.031 35.5123 246.63C35.5123 246.224 36.0331 246.417 36.6893 247.068C37.3404 247.714 38.1425 248.089 38.4706 247.88C38.7935 247.688 42.0435 247.365 45.6789 247.177C52.2518 246.844 52.33 246.797 58.1425 240.875C61.356 237.594 63.731 234.5 63.4185 233.99C63.106 233.484 63.3352 233.073 63.9289 233.073C64.5227 233.073 64.9341 232.729 64.8456 232.307C64.757 231.891 65.0487 230.698 65.5018 229.661C66.0383 228.422 65.83 227.432 64.9029 226.771C63.7883 225.974 63.8612 225.88 65.2623 226.333C66.2831 226.661 67.0748 226.375 67.1164 225.661C67.1529 224.984 67.3925 223.328 67.6373 222.005C67.882 220.672 67.5643 218.953 66.9289 218.188C66.0591 217.141 66.0748 216.797 66.9862 216.797C67.7206 216.797 67.3768 215.651 66.1216 213.88C64.981 212.276 64.3664 210.651 64.7518 210.266C65.1373 209.88 64.6477 209.875 63.6581 210.25C62.4393 210.719 61.9706 210.495 62.1633 209.542C62.33 208.776 61.8873 208.266 61.1893 208.401Z" fill="white"/>
<path d="M142.07 137.719C140.247 138.563 137.835 139.51 136.716 139.833C134.439 140.49 131.122 138.953 131.122 137.255C131.122 136.641 130.32 135.51 129.341 134.74C128.367 133.974 128.018 133.406 128.58 133.479C131.091 133.813 132.143 133.24 132.143 131.542C132.143 128.151 137.783 120.719 142.075 118.458L146.242 116.255L147.278 119.219C147.846 120.844 148.794 122.188 149.382 122.188C149.966 122.188 150.445 123.979 150.445 126.172C150.445 130.849 147.184 135.349 142.07 137.719ZM156.054 112.01C154.768 112.01 153.45 111.313 153.127 110.458C152.549 108.969 148.742 109.172 145.872 110.849C144.247 111.797 142.257 111.906 142.804 111.016C143.08 110.573 142.283 109.938 141.028 109.609C136.913 108.531 122.986 117.474 122.986 121.188C122.986 122.229 122.523 123.365 121.955 123.719C121.387 124.063 120.236 125.984 119.408 127.969C118.184 130.906 118.106 132.844 118.971 138.302C119.559 141.995 120.512 145.313 121.096 145.667C121.674 146.026 122.153 146.724 122.169 147.219C122.179 147.714 124.314 149.375 126.908 150.906C131.658 153.703 137.58 154.599 138.752 152.698C139.101 152.13 140.518 151.875 141.887 152.12C143.262 152.37 144.179 152.24 143.924 151.828C143.674 151.417 145.96 150.005 149.012 148.693C152.054 147.375 154.335 146.073 154.064 145.807C153.799 145.536 155.117 143.432 156.997 141.13C158.877 138.818 161.08 135.307 161.903 133.318C165.059 125.688 161.299 112.01 156.054 112.01Z" fill="white"/>
<path d="M224.194 251.38C223.851 251.943 223.366 252.401 223.116 252.401C222.866 252.401 222.674 251.943 222.674 251.38C222.674 250.823 223.153 250.365 223.752 250.365C224.34 250.365 224.543 250.823 224.194 251.38ZM224.705 220.859C223.788 220.271 223.663 219.87 224.392 219.865C225.054 219.854 225.887 220.297 226.226 220.859C227.012 222.13 226.658 222.13 224.705 220.859ZM252.387 219.599C253.705 219.161 252.616 213.745 251.215 213.745C250.069 213.745 242.997 220.542 240.736 223.813C239.085 226.203 238.997 226.214 236.293 224.448C232.971 222.266 228.851 217.719 228.804 216.193C228.783 215.578 227.194 214.229 225.267 213.188C221.851 211.344 221.7 211.344 219.674 213.188C217.309 215.323 216.736 220.385 218.95 219.542C219.7 219.25 220.955 219.427 221.747 219.922C222.955 220.693 222.939 220.844 221.653 220.927C220.814 220.984 221.497 221.656 223.174 222.427C224.856 223.193 225.632 223.844 224.898 223.87C224.168 223.891 223.83 224.344 224.153 224.859C224.471 225.385 224.273 226.099 223.705 226.448C221.632 227.729 222.757 230.047 226.736 232.688C230.861 235.411 231.913 237.135 229.46 237.135C228.726 237.135 227.382 238.63 226.481 240.448C221.95 249.599 220.887 252.188 220.247 255.625C219.679 258.714 219.866 259.432 221.366 259.755C223.413 260.214 229.564 255.141 234.866 248.635C238.892 243.688 240.08 244.036 243.226 251.125C244.913 254.932 245.538 255.453 248.45 255.453C250.273 255.453 252.314 254.896 252.986 254.229C254.335 252.87 254.622 249.745 253.444 249.094C253.017 248.854 253.262 248.807 253.965 248.979C256.122 249.505 254.783 242.755 252.064 239.359C250.726 237.682 248.616 235.833 247.398 235.25C245.043 234.13 244.512 230.021 246.726 230.021C247.408 230.021 248.549 228.417 249.252 226.458C249.96 224.495 250.96 222.896 251.46 222.896C251.971 222.896 252.132 222.24 251.825 221.438C251.517 220.635 251.767 219.802 252.387 219.599Z" fill="white"/>
<path d="M246.398 129.901C245.58 132.021 236.153 138.464 233.856 138.464C232.736 138.464 231.82 138.922 231.82 139.474C231.82 140.948 230.611 140.698 228.049 138.693C226.116 137.188 225.918 136.422 226.658 133.38C228.033 127.656 229.653 124.219 230.955 124.219C231.616 124.219 231.856 123.911 231.491 123.547C231.122 123.177 231.726 122.24 232.84 121.458C234.596 120.224 235.465 120.313 239.559 122.12C242.137 123.266 244.658 123.948 245.158 123.646C245.658 123.328 246.096 123.453 246.142 123.906C246.184 124.359 246.382 125.573 246.58 126.615C246.778 127.656 246.695 129.13 246.398 129.901ZM259.377 121.094C259.189 119.875 253.585 114.281 251.429 113.151C250.184 112.505 247.33 111.859 245.075 111.729C242.83 111.609 240.986 111.193 240.986 110.813C240.976 109.839 236.111 110.609 231.32 112.349C229.075 113.161 227.361 114.333 227.502 114.953C227.642 115.573 227.07 116.078 226.226 116.078C225.387 116.078 224.705 116.479 224.705 116.979C224.705 117.474 223.793 118.115 222.674 118.406C220.168 119.063 216.377 127.271 216.007 132.833C215.861 135.052 215.278 137.026 214.71 137.214C214.08 137.422 214.002 138.661 214.507 140.406C215.767 144.802 217.585 147.734 218.642 147.078C219.184 146.75 219.304 147.255 218.929 148.24C218.471 149.417 218.637 149.745 219.445 149.25C220.101 148.844 220.632 148.911 220.632 149.396C220.632 149.875 221.892 150.776 223.429 151.385C226.247 152.5 231.778 152.391 237.413 151.115C239.096 150.729 242.262 148.531 244.455 146.219C246.648 143.911 247.846 142.818 247.127 143.802C246.127 145.156 246.116 145.578 247.054 145.578C247.731 145.578 248.517 144.719 248.788 143.661C249.101 142.469 249.939 141.917 251.012 142.198C252.773 142.656 257.663 139.214 256.668 138.214C256.361 137.906 256.976 136.057 258.023 134.099C259.616 131.12 260.158 125.984 259.377 121.094Z" fill="white"/>
<path d="M191.08 113.026C190.549 113.026 190.116 112.568 190.116 112.01C190.116 111.448 190.83 110.995 191.705 110.995C192.58 110.995 193.012 111.448 192.658 112.01C192.32 112.568 191.606 113.026 191.08 113.026ZM190.059 34.6927C190.648 34.6927 191.137 35.1563 191.137 35.7031C191.137 36.2656 190.934 36.7292 190.684 36.7292C190.439 36.7292 189.955 36.2656 189.606 35.7031C189.267 35.1563 189.471 34.6927 190.059 34.6927ZM188.554 236.188C187.726 237.521 187.408 237.375 187.408 235.656C187.408 234.844 187.794 234.417 188.273 234.708C188.747 235 188.872 235.672 188.554 236.188ZM184.012 166.948C183.46 166.948 183.002 166.49 183.002 165.927C183.002 165.37 183.46 164.906 184.012 164.906C184.575 164.906 185.033 165.37 185.033 165.927C185.033 166.49 184.575 166.948 184.012 166.948ZM183.387 234.542C182.71 236.307 181.981 236.625 181.981 235.161C181.981 234.641 182.434 233.932 182.986 233.589C183.559 233.234 183.736 233.641 183.387 234.542ZM180.924 155.198C181.32 156.292 181.221 159.26 180.71 161.807C179.913 165.813 179.21 171.495 178.991 175.844C178.95 176.771 176.267 177.12 169.205 177.12C163.851 177.12 158.7 177.521 157.757 178.016C156.762 178.531 155.028 178.531 153.622 178C152.288 177.5 138.674 177.266 123.361 177.474C99.7675 177.802 95.5227 177.646 95.5227 176.411C95.5227 175.521 95.0331 175.26 94.2467 175.729C93.3717 176.25 93.4081 175.958 94.3612 174.781C95.1269 173.839 95.9185 170.766 96.1373 167.938C96.3508 165.12 96.7206 161.25 96.955 159.344C97.2154 157.271 96.9029 155.672 96.1998 155.385C95.4237 155.063 95.5019 154.87 96.4081 154.818C97.5331 154.755 97.5592 154.438 96.5383 153.208C95.8404 152.37 95.6737 151.688 96.1633 151.688C97.6164 151.688 98.33 114.083 96.9185 111.797C96.4654 111.068 96.7571 110.854 97.7206 111.229C99.0019 111.719 99.2519 110.083 99.3404 100.63C99.3873 94.4792 99.6789 89.1979 99.9862 88.901C100.283 88.5938 100.101 87.5365 99.58 86.5521C98.83 85.1458 99.106 84.6146 100.887 84.0365C105.142 82.6771 106.611 82.5365 107.158 83.4271C107.46 83.9167 109.434 84.0677 111.533 83.7604C113.637 83.4583 116.273 83.1667 117.387 83.1146C118.512 83.0573 119.762 82.5625 120.174 82C120.658 81.3333 120.924 81.3594 120.934 82.0573C120.95 82.9531 133.96 83.3698 134.939 82.5104C135.252 82.2344 139.163 82.2031 139.512 82.4792C140.377 83.151 144.351 83.0313 144.351 82.3333C144.351 81.8698 144.83 81.4896 145.429 81.4896C146.017 81.4896 146.179 82.0208 145.778 82.6615C145.325 83.3906 145.497 83.5677 146.221 83.1146C146.866 82.7135 148.356 83.0625 149.528 83.8854C151.439 85.2188 152.028 85.1615 155.189 83.2969C157.731 81.7969 159.028 81.5208 159.83 82.3229C160.58 83.0781 161.533 83.1042 162.83 82.4115C163.877 81.8542 165.288 81.7604 165.981 82.2031C166.669 82.6563 169.981 83.0781 173.335 83.151C182.585 83.3542 183.169 83.4427 182.491 84.5417C182.148 85.1042 182.236 85.5625 182.684 85.5625C183.663 85.5573 183.497 95.4688 182.471 98.0365C182.075 99.026 182.314 100.505 183.007 101.344C183.898 102.406 183.929 102.849 183.116 102.849C182.335 102.849 181.986 105.766 182.033 111.755C182.163 127.411 181.439 151.146 180.814 152.193C180.481 152.755 180.523 154.104 180.924 155.198ZM151.465 182.203C150.346 182.203 149.434 182.031 149.434 181.818C149.434 181.599 150.346 181.182 151.465 180.891C152.59 180.599 153.497 180.776 153.497 181.286C153.497 181.792 152.59 182.203 151.465 182.203ZM97.5539 88.6146C98.1164 88.6146 98.5748 89.0677 98.5748 89.6302C98.5748 90.1875 98.1164 90.6458 97.5539 90.6458C96.9967 90.6458 96.5383 90.1875 96.5383 89.6302C96.5383 89.0677 96.9967 88.6146 97.5539 88.6146ZM97.6164 59.1094C98.2102 59.1094 98.4133 59.5677 98.0644 60.1302C97.7206 60.6875 97.231 61.1406 96.9862 61.1406C96.7362 61.1406 96.5383 60.6875 96.5383 60.1302C96.5383 59.5677 97.0227 59.1094 97.6164 59.1094ZM161.481 72.9427C160.7 73.4167 160.585 73.2135 161.127 72.3385C161.767 71.2969 162.247 71.4219 163.32 72.8854C164.403 74.3698 164.424 74.9271 163.419 75.5677C162.721 76.0104 161.684 76.3438 161.132 76.3073C160.57 76.2708 160.689 76.0104 161.387 75.724C162.085 75.4479 162.653 74.5417 162.653 73.7135C162.653 72.8438 162.169 72.5156 161.481 72.9427ZM90.5592 87.5938C89.3717 87.5938 88.4029 87.1615 88.4029 86.6406C88.4029 84.875 90.1894 84.5521 91.4654 86.0781C92.5019 87.3385 92.3612 87.5938 90.5592 87.5938ZM54.7727 83.5208C54.1789 83.5208 53.9758 83.0729 54.3248 82.5104C54.6685 81.9479 55.1581 81.4896 55.4081 81.4896C55.6529 81.4896 55.8508 81.9479 55.8508 82.5104C55.8508 83.0729 55.3664 83.5208 54.7727 83.5208ZM295.137 190.714C294.439 191.135 293.872 191.047 293.872 190.526C293.872 189.422 285.747 187.161 284.523 187.917C284.07 188.198 283.695 187.979 283.695 187.438C283.695 186.5 282.017 185.953 275.559 184.75C274.158 184.484 271.872 184.052 270.476 183.786C267.028 183.13 257.601 182.016 252.903 181.719C250.788 181.583 248.794 181.203 248.476 180.885C248.153 180.563 246.762 180.724 245.392 181.25C244.017 181.776 243.106 181.854 243.361 181.438C243.622 181.021 242.158 180.625 240.111 180.552C238.07 180.484 232.736 180.099 228.257 179.698C221.476 179.094 203.851 178.724 203.851 179.182C203.851 179.26 202.554 179.531 200.965 179.792C199.111 180.089 198.309 179.88 198.736 179.203C199.09 178.615 198.679 178.078 197.804 178.005C194.861 177.776 194.356 177.63 193.502 176.776C192.523 175.792 192.153 164.885 193.054 163.385C193.528 162.594 194.299 142.755 194.174 134.391C194.148 133.552 194.148 131.766 194.158 130.427C194.174 129.083 193.606 127.281 192.908 126.417C191.892 125.156 191.892 125 192.924 125.609C194.554 126.594 195.689 123.818 194.642 121.422C194.21 120.438 194.007 119.182 194.184 118.625C194.356 118.063 194.606 113.411 194.726 108.292C194.861 103.161 195.252 98.5052 195.611 97.9323C195.96 97.3594 195.794 96.6094 195.226 96.2552C194.137 95.5885 194.007 84.5781 195.08 84.4896C195.429 84.4635 200.434 84.2448 206.2 84.0052C211.965 83.7604 217.184 83.2604 217.799 82.8802C218.424 82.4948 218.622 82.6563 218.252 83.2604C217.882 83.849 218.278 84.5938 219.111 84.9115C219.95 85.2344 220.632 85.0677 220.632 84.5417C220.632 84.0208 225.507 83.5521 231.564 83.5052C249.778 83.3594 251.695 83.1823 251.346 81.5677C251.096 80.4167 251.33 80.375 252.507 81.349C253.669 82.3229 254.919 82.2135 258.419 80.8542C263.012 79.0677 266.408 76.6979 266.408 75.2552C266.408 73.6927 261.851 71.4635 257.325 70.8021C249.309 69.6354 237.57 69.8333 237.132 71.1354C236.913 71.8073 236.34 72.099 235.851 71.8021C235.361 71.5 235.215 70.4635 235.523 69.5052C235.851 68.4844 235.726 68.1771 235.221 68.776C233.695 70.5833 230.497 71.0104 226.991 69.8854C225.658 69.4531 224.7 69.5729 224.7 70.151C224.7 71.125 218.195 70.7969 216.491 69.7448C216.049 69.474 215.419 69.6771 215.096 70.2031C214.752 70.7552 213.304 70.8229 211.71 70.3646C210.174 69.9271 208.002 69.8906 206.892 70.2969C205.778 70.6979 203.95 70.875 202.83 70.6771C201.715 70.4896 199.309 70.2135 197.491 70.0573C194.262 69.7969 194.189 69.6771 194.08 64.7031C194.023 61.9063 193.856 57.3281 193.715 54.5365C193.575 51.7344 193.965 48.7865 194.58 47.974C195.32 47.0208 195.335 46.7344 194.627 47.1615C193.887 47.599 193.471 43.8385 193.309 35.401C193.09 24.0729 192.835 20.7656 191.611 13.401C191.387 12.0365 190.439 10.2083 189.497 9.33334C188.559 8.45313 188.116 8.30729 188.507 9.00521C188.945 9.78646 188.601 10.276 187.632 10.276C186.757 10.276 186.007 10.849 185.965 11.5469C185.913 12.25 185.731 13.9688 185.559 15.3646C184.679 22.3594 184.299 38.4948 184.976 40.2865C185.439 41.5052 185.221 43.1406 184.434 44.3542C183.502 45.7969 183.189 49.9271 183.372 58.4323L183.616 70.474L180.762 70.0521C179.148 69.8177 177.908 70.1094 177.892 70.7292C177.887 71.4063 177.585 71.3646 177.106 70.6042C176.632 69.8698 175.778 69.7292 174.95 70.2396C174.195 70.7135 172.294 70.7292 170.731 70.2813C169.163 69.8333 167.637 69.724 167.325 70.0365C167.012 70.349 163.429 70.4948 159.361 70.3594C155.299 70.2135 149.221 70.1198 145.872 70.1354C142.512 70.1615 136.335 70.1615 132.142 70.1354C127.945 70.1198 123.939 70.1615 123.241 70.224C120.398 70.4948 118.257 70.4583 115.356 70.0677C111.95 69.6146 107.497 71.1406 108.325 72.4844C108.616 72.9583 108.377 73.349 107.788 73.349C107.189 73.349 106.71 72.6302 106.71 71.75C106.71 70.7135 105.903 70.2188 104.413 70.3385C103.163 70.4375 101.669 70.474 101.116 70.4167C100.476 70.3438 100.184 64.7188 100.335 55.2917C100.736 29.6667 100.7 27.2396 99.8769 26.6354C99.4342 26.3073 98.9185 24.7344 98.731 23.1354C98.4862 21 98.731 20.4271 99.6737 21.0156C100.585 21.5729 100.757 21.2917 100.273 20.0208C99.8925 19.0469 99.5852 16.9479 99.5852 15.3542C99.5852 13.7656 98.9914 11.8542 98.2623 11.1094C97.5331 10.375 96.6269 8.97917 96.2623 8.01042C94.5435 3.46875 90.1685 10.276 89.9133 17.8802C89.83 20.2135 89.5227 22.5469 89.2414 23.0677C88.9498 23.5833 88.7831 25.3854 88.8717 27.0625C88.9498 28.7448 88.6737 31.1302 88.2414 32.3698C87.7987 33.6302 87.8873 34.8854 88.4394 35.224C89.0748 35.6198 89.0748 36.4948 88.4394 37.6771C87.8977 38.6875 87.6842 39.7344 87.9602 40.0104C88.9446 40.9948 89.2779 44.8281 88.4342 45.3542C87.9602 45.6458 87.8144 46.7969 88.106 47.9115C88.3977 49.0156 88.9446 49.7396 89.33 49.5C89.705 49.2656 90.6842 49.474 91.4914 49.9792C92.6894 50.7135 92.7154 51.1302 91.6529 52.1875C90.5956 53.25 90.1842 53.224 89.4289 52.0052C88.6529 50.7344 88.4133 50.7813 87.8352 52.2813C87.455 53.2604 87.3925 54.9635 87.6842 56.0729C87.9706 57.1875 87.7206 58.0885 87.1217 58.0885C86.5175 58.0885 86.3039 58.3646 86.6425 58.7083C86.9758 59.0417 86.83 60.4323 86.3144 61.7969C85.5175 63.875 85.7362 64.4115 87.6477 65.1823C89.4029 65.8906 89.5175 66.1146 88.1477 66.1667C86.9498 66.2135 86.3664 67.0469 86.3664 68.7396C86.3664 70.6979 86.7571 71.1146 88.1477 70.6094C89.1269 70.2656 89.6269 70.3125 89.2571 70.7292C88.0487 72.0677 72.6425 73.1927 71.4758 72.0156C71.1269 71.6719 69.9289 71.875 68.8144 72.4688C67.2883 73.2917 66.981 73.2552 67.5487 72.3333C68.1217 71.4063 67.8039 71.375 66.2206 72.2292C63.7102 73.5677 55.7571 74.3333 56.4758 73.1615C56.7623 72.7031 56.2519 72.3333 55.3404 72.3333C54.4341 72.3333 53.9029 72.6771 54.1685 73.0938C54.4185 73.5208 51.5904 73.8594 47.8664 73.8594C44.1425 73.8594 40.6737 74.0521 40.1529 74.2917C39.6321 74.526 35.6789 74.8385 31.3716 74.9844C22.6894 75.2813 16.0123 77.75 15.58 80.8177C15.4341 81.8542 15.58 82.4271 15.9081 82.099C16.2362 81.776 17.1216 82.026 17.8873 82.6615C18.6529 83.2969 19.5748 83.5208 19.9289 83.1719C20.2779 82.8125 21.0956 82.9583 21.7414 83.4948C23.6269 85.0573 37.7258 85.6563 39.4758 84.2344C40.3404 83.5365 40.6998 83.4844 40.3248 84.1198C39.8612 84.8906 42.6685 85.1771 49.5331 85.0729C54.9654 84.9948 59.8716 85.2188 60.4289 85.5885C61.7935 86.4792 70.205 85.5573 69.6112 84.5781C69.3456 84.1563 70.8352 84.0521 72.9185 84.349C77.6217 85.0104 81.3248 85.0521 83.3092 84.4792C84.1789 84.224 84.7258 84.599 84.5696 85.3438C84.4237 86.0625 84.7831 87.5573 85.3717 88.651C86.1737 90.1458 86.106 90.6667 85.1321 90.7292C84.1112 90.7865 84.106 90.9167 85.0956 91.3177C86.7623 91.9948 86.7154 94.8385 84.9706 98.1875C83.83 100.396 83.8092 101.547 84.8508 104.583C85.5696 106.682 85.8039 109.427 85.3873 110.917C84.981 112.359 84.7154 122.464 84.7987 133.37C84.9081 148.219 84.6008 153.781 83.5956 155.505C82.7935 156.854 82.6737 157.792 83.2935 157.792C83.8664 157.792 84.33 158.474 84.33 159.313C84.33 160.151 83.9914 160.844 83.5644 160.844C83.1529 160.844 82.8092 164.552 82.8092 169.073C82.8144 173.599 82.3769 177.578 81.8404 177.906C80.8248 178.531 73.9758 179.151 68.3821 179.115C66.6164 179.109 64.8664 179.573 64.5019 180.156C64.1477 180.74 63.3091 180.875 62.6477 180.464C60.9341 179.37 55.9237 179.234 55.2935 180.25C55.0071 180.724 53.6737 180.698 52.33 180.188C50.9914 179.677 48.6894 179.479 47.2102 179.75C45.7258 180.016 40.0852 180.469 34.6737 180.755C29.2623 181.036 24.1425 181.323 23.3039 181.396C22.4654 181.464 21.1998 182.25 20.4914 183.13C19.7831 184.021 19.2675 184.286 19.3404 183.729C19.6373 181.464 19.1581 181 17.7154 182.198C16.8821 182.885 16.455 183.859 16.7623 184.354C17.0644 184.849 16.7779 185.255 16.1216 185.255C13.481 185.255 17.356 188.109 20.8925 188.776C23.7258 189.307 24.8091 189.052 25.9081 187.609C27.1321 185.995 27.3091 185.969 27.3404 187.427C27.356 188.625 28.6998 189.292 32.0383 189.797C35.8821 190.37 36.9446 190.167 38.106 188.635C38.9341 187.547 39.5227 187.302 39.5487 188.052C39.58 189.635 42.6269 189.76 42.6269 188.182C42.6269 187.438 43.205 187.521 44.2987 188.427C45.3977 189.344 48.9914 189.839 54.9758 189.906C59.9289 189.958 64.2258 190.24 64.5227 190.536C64.8248 190.839 67.4498 190.531 70.3769 189.859C75.5019 188.688 82.4237 189.432 82.1685 191.135C81.8456 193.255 82.4289 194.453 83.4706 193.807C84.2102 193.349 84.3664 193.526 83.9081 194.271C83.5071 194.927 82.7519 195.203 82.2258 194.88C81.7102 194.552 81.2831 195.193 81.2831 196.302C81.2831 197.411 81.0019 199.042 80.6633 199.922C80.2623 200.979 80.6112 201.531 81.6789 201.531C82.5748 201.531 83.3092 202.021 83.3092 202.609C83.3092 203.198 82.8925 203.427 82.3664 203.104C80.1581 201.734 79.3196 206.667 79.2831 221.146C79.2623 231.344 79.3769 232.292 80.7623 233.281C81.3144 233.677 81.7831 234.818 81.7831 235.823C81.7831 236.828 82.3456 237.536 83.0279 237.406C83.7623 237.26 84.0123 237.807 83.6477 238.766C83.1737 240 83.5956 240.292 85.4602 240.026C86.8039 239.839 87.7414 239.276 87.5539 238.776C87.3612 238.281 87.6321 237.594 88.1477 237.255C90.6164 235.615 92.4706 223.141 92.7935 205.953C92.8977 200.833 93.3196 196.854 93.7414 197.109C94.5539 197.615 94.83 196.214 94.5748 192.854C94.3456 189.906 99.6216 188.271 107.221 188.938C118.424 189.911 131.616 190.021 133.351 189.161C134.366 188.651 135.33 188.724 135.71 189.339C136.096 189.964 136.971 190.021 137.945 189.469C138.83 188.979 140.403 188.797 141.445 189.068C142.528 189.349 143.33 189.031 143.33 188.302C143.33 187.302 143.648 187.302 144.856 188.307C145.762 189.068 147.627 189.328 149.434 188.974C151.111 188.635 152.486 188.771 152.486 189.271C152.486 190.073 155.413 190.333 163.163 190.245C170.892 190.151 173.846 189.781 173.846 188.906C173.846 188.354 174.387 188.448 175.07 189.125C175.736 189.797 177.45 190.349 178.877 190.354C180.351 190.37 180.976 190.698 180.335 191.125C179.528 191.646 179.309 197.604 179.596 211.198C180.116 235.781 179.997 234.875 183.002 237.172C184.445 238.286 184.939 239.141 184.153 239.151C183.247 239.167 182.955 239.911 183.314 241.292C183.715 242.802 183.465 243.25 182.471 242.87C181.377 242.448 181.283 242.818 182.054 244.568C182.596 245.802 183.309 247.604 183.642 248.583C183.976 249.563 184.689 250.365 185.221 250.365C185.752 250.365 185.898 251.276 185.544 252.401C185.184 253.521 185.351 254.432 185.913 254.432C186.476 254.432 187.221 255.349 187.575 256.474V256.464C188.267 258.635 191.58 259.234 192.715 257.401C193.976 255.359 194.32 243.104 193.153 241.703C192.32 240.688 192.491 240.094 193.877 239.286C195.158 238.542 195.283 238.208 194.267 238.188C193.486 238.172 193.085 237.901 193.387 237.594C193.7 237.286 193.585 235.401 193.132 233.406C192.684 231.401 192.653 228.839 193.075 227.703C193.497 226.563 193.288 224.021 192.611 222.057C191.856 219.875 191.7 217.37 192.195 215.635C192.637 214.078 192.637 210.151 192.195 206.917C191.736 203.589 191.773 200.875 192.283 200.682C192.778 200.5 192.939 199.953 192.642 199.469C192.346 198.995 192.392 196.833 192.741 194.661L193.366 190.729L204.205 190.948C210.163 191.068 217.184 191.432 219.825 191.755C222.533 192.083 224.872 191.906 225.221 191.339C225.616 190.698 226.648 190.771 228.07 191.542C229.325 192.229 235.507 192.87 242.278 193.031C248.861 193.182 254.794 193.651 255.471 194.057C256.137 194.474 258.299 194.729 260.278 194.625C262.247 194.516 268.564 194.406 274.32 194.37C280.064 194.344 284.575 193.99 284.325 193.599C284.085 193.203 286.044 193.036 288.684 193.224C292.335 193.479 293.825 193.135 294.95 191.755C295.851 190.641 295.929 190.24 295.137 190.714Z" fill="white"/>
<path d="M28.4133 152.479C26.0487 154.396 22.1008 162.354 23.0487 163.297C24.0904 164.339 25.2831 163.948 27.3716 161.854C28.4862 160.74 29.4081 160.047 29.4081 160.333C29.4081 160.609 30.2727 160.042 31.3352 159.057C32.4029 158.083 34.9133 155.911 36.9289 154.234C40.9029 150.943 41.4862 149.651 39.0071 149.651C38.1268 149.651 37.7258 149.156 38.106 148.542C38.5904 147.75 39.1008 147.75 39.8873 148.536C40.6737 149.323 41.606 149.057 43.1685 147.589C44.5904 146.255 45.3821 145.995 45.455 146.833C45.5539 148.099 46.3508 151.698 46.7362 152.703C46.8456 152.979 46.8821 153.563 46.8091 154C46.4602 156.109 50.0123 160.734 52.6893 161.667C57.606 163.385 59.3664 161.333 58.5904 154.781C58.2362 151.839 57.4498 148.828 56.8404 148.094C56.2258 147.359 55.6112 145.688 55.4654 144.385C55.3091 143.089 54.3977 140.516 53.4393 138.672C51.6893 135.328 51.6946 135.318 55.356 129.281C57.3716 125.969 59.4602 122.974 59.9914 122.646C61.5227 121.698 65.0071 114.339 65.0071 112.052C65.0071 109.26 62.0331 109.385 59.3091 112.286C58.1373 113.531 54.7727 117.453 51.83 120.99L46.481 127.438L42.9862 122.24C41.0539 119.375 39.1321 117.255 38.705 117.516C38.2623 117.786 37.1216 116.656 36.1425 115.005C35.0018 113.073 33.5852 112.036 32.1477 112.089C30.9133 112.13 30.4862 112.401 31.1841 112.688C32.9758 113.406 32.7727 116.078 30.9289 116.078C29.2518 116.078 28.83 117.745 30.3664 118.281C31.6737 118.74 40.6268 136.422 39.5487 136.422C39.08 136.422 38.4237 137.224 38.0956 138.208C37.7675 139.182 35.6789 141.974 33.4498 144.401C31.2206 146.828 29.6633 149.245 29.9914 149.771C30.3091 150.292 29.606 151.51 28.4133 152.479Z" fill="white"/>
<mask id="mask0_96_46" style="mask-type:luminance" maskUnits="userSpaceOnUse" x="0" y="0" width="307" height="293">
<path d="M0.522705 0.0989609H306.476V292.911H0.522705V0.0989609Z" fill="white"/>
</mask>
<g mask="url(#mask0_96_46)">
<path d="M17.1424 268.495C16.8924 268.495 16.4132 268.036 16.0643 267.474C15.7205 266.922 15.9237 266.464 16.5122 266.464C17.106 266.464 17.5903 266.922 17.5903 267.474C17.5903 268.036 17.3872 268.495 17.1424 268.495ZM302.658 0.28125C297.804 0.869791 291.965 3.09896 290.898 4.77604C290.439 5.48958 289.637 5.80208 289.116 5.48437C288.59 5.15625 288.153 5.26562 288.137 5.71875C288.132 6.17187 285.846 7.89062 283.054 9.54167C280.273 11.1927 277.731 13.3802 277.408 14.3958C277.09 15.4063 276.361 15.9375 275.788 15.5885C274.627 14.875 270.33 16.8385 267.517 19.3698C266.512 20.2813 264.007 21.8802 261.945 22.9323C259.887 23.9896 256.762 26.3333 255.007 28.1563C253.257 29.9792 251.059 31.4635 250.148 31.4635C249.241 31.4635 248.491 31.8698 248.491 32.3698C248.491 32.875 245.174 35.3542 241.116 37.8802C237.059 40.4115 232.596 43.4792 231.195 44.6927C229.799 45.901 227.403 47.6458 225.856 48.5521C224.32 49.4635 223.059 50.5729 223.059 51.0104C223.059 51.4479 222.377 51.8021 221.538 51.8021C220.7 51.8021 220.007 52.2865 220.007 52.875C220.007 53.4635 218.523 54.651 216.705 55.5156C210.267 58.5573 208.82 59.4167 208.82 60.2344C208.82 61.0156 206.424 63.4323 201.872 67.2344C200.757 68.1771 199.58 68.6771 199.267 68.3646C198.955 68.0521 198.408 68.5469 198.059 69.4635C197.7 70.3802 196.997 71.1406 196.486 71.1406C195.976 71.1406 194.023 72.625 192.137 74.4427C190.252 76.2604 186.804 79.125 184.476 80.8021C182.153 82.4792 178.924 85.0677 177.304 86.5469C175.695 88.0365 174.043 88.9427 173.632 88.5833C173.226 88.2188 173.168 88.4063 173.502 88.9948C174.252 90.3229 169.471 94.9948 166.351 95.9844C165.09 96.3854 164.059 97.1042 164.059 97.5833C164.059 98.0729 163.247 98.7292 162.247 99.0417C160.226 99.6823 146.778 111.932 146.778 113.135C146.778 114.203 140.382 119.901 139.132 119.938C138.57 119.953 137.189 121.193 136.08 122.693C134.971 124.188 133.465 125.906 132.741 126.5C132.012 127.104 130.195 128.74 128.71 130.135C127.221 131.536 125.653 132.578 125.236 132.443C124.814 132.307 124.731 132.885 125.049 133.714C125.366 134.547 125.195 135.229 124.653 135.229C124.116 135.229 120.83 137.979 117.361 141.328C113.887 144.688 110.642 147.432 110.158 147.432C109.674 147.432 108.981 148.349 108.627 149.474C108.278 150.589 107.33 151.505 106.528 151.505C105.726 151.505 105.075 151.984 105.075 152.583C105.075 153.177 104.658 153.406 104.163 153.094C103.293 152.563 101.825 154.88 101.606 157.099C101.554 157.661 101.049 158.318 100.491 158.557C99.9289 158.802 98.5955 160.12 97.5174 161.49C94.4289 165.411 91.0018 168.625 90.4601 168.094C90.1945 167.823 89.1476 168.906 88.1372 170.495C87.1216 172.083 85.7153 173.74 85.0018 174.193C84.2883 174.635 83.7101 175.458 83.7101 176.021C83.7101 176.583 80.9237 179.818 77.5122 183.214C73.382 187.333 71.4862 189.974 71.7987 191.167C72.1268 192.427 71.7726 192.839 70.6112 192.547C69.5591 192.281 68.0383 193.542 66.4289 195.984C65.0383 198.099 63.0903 200.568 62.1112 201.469C61.1164 202.38 60.3195 203.573 60.3195 204.135C60.3195 204.698 58.481 206.932 56.2466 209.104C54.007 211.276 52.1789 213.651 52.1789 214.385C52.1789 215.115 51.7205 215.438 51.158 215.083C50.6007 214.745 50.1424 214.99 50.1424 215.641C50.1424 216.297 48.9966 217.729 47.5955 218.833C46.1997 219.932 45.0539 221.411 45.0539 222.12C45.0539 222.823 43.6632 224.635 41.9653 226.146C40.2674 227.661 39.1268 229.292 39.4185 229.771C39.7153 230.25 39.2414 230.917 38.3768 231.255C37.5018 231.589 37.0591 232.286 37.3768 232.813C37.6997 233.339 37.0487 234.052 35.9341 234.411C34.8195 234.755 34.0122 235.594 34.1424 236.255C34.2674 236.922 33.7987 237.354 33.1007 237.214C32.4028 237.073 31.8351 237.792 31.8351 238.807C31.8351 240.266 26.9966 247.042 23.7205 250.188C23.4289 250.464 22.2987 252.438 21.2153 254.568C20.1268 256.693 18.2466 259.516 17.033 260.823C13.3091 264.844 10.4705 269.234 10.4705 270.974C10.4705 271.885 9.82471 272.875 9.04866 273.172C8.26221 273.479 7.35075 274.495 7.02262 275.432C6.6945 276.375 5.507 278.51 4.39241 280.198C0.335121 286.281 -0.107587 287.651 1.12679 290.37C1.77262 291.766 2.90804 292.911 3.65804 292.911C5.16325 292.911 9.45491 288.391 9.45491 286.797C9.45491 286.245 9.91325 285.792 10.4705 285.792C11.0278 285.792 11.4862 285.339 11.4862 284.786C11.4862 284.234 12.1424 282.974 12.9549 281.99C17.9132 275.906 23.3351 269.021 24.1997 267.677C26.0539 264.818 29.2466 260.964 32.7518 257.328C34.6528 255.359 36.7153 252.557 37.3247 251.099C37.9393 249.635 39.9185 247.203 41.7257 245.688C43.533 244.161 44.9028 242.609 44.7778 242.234C44.6528 241.844 45.8143 239.891 47.3508 237.885C48.8872 235.87 50.1424 233.693 50.1424 233.047C50.1424 232.401 50.7518 231.87 51.4914 231.87C52.2362 231.87 53.4862 230.615 54.257 229.073C56.2935 225.031 67.8195 212.547 69.507 212.547C69.908 212.547 70.8403 211.078 71.5851 209.297C72.7778 206.411 79.1893 199.323 80.6112 199.313C81.9862 199.313 87.9237 189.188 87.2153 188.052C86.7101 187.229 86.8664 187.057 87.6737 187.557C89.3976 188.62 104.07 173.073 103.283 171.016C102.903 170.042 103.106 169.74 103.835 170.193C105.502 171.219 108.898 168.781 110.215 165.609C110.835 164.104 112.679 162.318 114.309 161.641C115.939 160.969 117.273 159.995 117.273 159.484C117.273 158.964 119.111 156.641 121.346 154.313C123.58 151.979 125.408 149.734 125.408 149.313C125.408 148.891 126.898 147.828 128.715 146.943C130.538 146.063 133.168 143.724 134.57 141.76C135.965 139.781 138.184 137.729 139.502 137.198C140.809 136.656 142.122 135.313 142.413 134.198C142.705 133.089 143.314 132.177 143.778 132.177C144.226 132.177 146.95 129.891 149.83 127.094C152.7 124.297 156.611 120.802 158.528 119.349C160.445 117.885 161.752 116.276 161.439 115.766C161.116 115.245 161.299 114.953 161.835 115.109C162.809 115.391 168.366 111.313 173.028 106.891C174.418 105.578 176.976 103.714 178.71 102.76C180.445 101.797 182.288 100.083 182.804 98.9479C184.007 96.2917 190.075 92.1094 191.476 92.974C192.434 93.5729 192.997 92.276 192.668 90.2135C192.601 89.7917 192.887 89.5625 193.309 89.7031C193.731 89.8438 195.059 89.0417 196.262 87.9271C201.642 82.9063 203.559 81.3125 204.184 81.3125C204.549 81.3125 205.971 80.099 207.346 78.6146C208.715 77.1354 209.84 76.1771 209.84 76.4792C209.84 76.7865 211.314 75.6563 213.122 73.9635C214.929 72.276 218.747 69.4063 221.611 67.5781C224.465 65.75 228.002 63.0521 229.465 61.5885C230.929 60.125 232.721 58.9271 233.445 58.9271C234.168 58.9271 236.064 57.5521 237.642 55.875C239.231 54.2031 241.09 52.8229 241.778 52.8229C242.471 52.8229 244.033 51.6823 245.247 50.2813C246.465 48.8802 247.95 47.7396 248.549 47.7396C249.137 47.7396 249.299 47.1615 248.898 46.4635C248.497 45.7656 248.528 45.5156 248.965 45.9167C249.715 46.5885 255.481 44.1927 256.627 42.7396C257.924 41.0937 265.689 35.526 266.695 35.526C267.314 35.526 267.814 35.0469 267.814 34.4531C267.814 33.8594 268.21 33.6146 268.684 33.9115C269.158 34.2031 270.507 33.5417 271.689 32.4479C272.872 31.349 274.32 30.4427 274.913 30.4427C276.085 30.4427 279.752 28.5 281.642 26.8802C282.299 26.3281 284.283 24.724 286.07 23.3281C287.856 21.9271 290.252 19.7813 291.403 18.5677C292.549 17.3438 294.684 15.8177 296.168 15.1719C299.939 13.5156 306.476 5.39062 306.476 2.35417C306.476 0.026041 306.163 -0.140626 302.658 0.28125Z" fill="white"/>
</g>
<path d="M150.291 141.098C149.874 141.098 149.504 141.015 149.186 140.848C148.879 140.682 148.645 140.452 148.478 140.161C148.311 139.859 148.228 139.515 148.228 139.14C148.228 138.781 148.311 138.452 148.478 138.161C148.645 137.859 148.879 137.619 149.186 137.452C149.504 137.275 149.874 137.182 150.291 137.182C150.707 137.182 151.072 137.265 151.395 137.432C151.712 137.598 151.957 137.838 152.124 138.14C152.291 138.432 152.374 138.765 152.374 139.14C152.374 139.713 152.176 140.182 151.791 140.557C151.416 140.921 150.916 141.098 150.291 141.098Z" fill="white"/>
</svg>
