<svg xmlns="http://www.w3.org/2000/svg" xmlns:xlink="http://www.w3.org/1999/xlink" width="308" zoomAndPan="magnify" viewBox="0 0 230.87999 221.249992" height="295" preserveAspectRatio="xMidYMid meet" version="1.0"><defs><g/><clipPath id="0f850a1035"><path d="M 0.332031 0.0742188 L 229.796875 0.0742188 L 229.796875 219.683594 L 0.332031 219.683594 Z M 0.332031 0.0742188 " clip-rule="nonzero"/></clipPath></defs><path fill="#000000" d="M 89.96875 41.78125 C 92.4375 41.972656 97.035156 39.300781 96.296875 38.097656 C 95.96875 37.570312 96.09375 37.441406 96.621094 37.757812 C 97.105469 38.058594 99.039062 36.777344 101.070312 34.796875 L 104.671875 31.300781 L 106.515625 33.140625 C 107.523438 34.152344 108.582031 36.140625 108.867188 37.5625 C 109.25 39.484375 110.054688 40.472656 112.03125 41.46875 C 113.488281 42.207031 115.273438 42.800781 115.992188 42.804688 C 119.277344 42.804688 120.300781 34.683594 117.34375 32.113281 C 116.378906 31.277344 115.304688 30.601562 114.949219 30.601562 C 114.59375 30.601562 114.304688 29.933594 114.304688 29.117188 C 114.304688 28.304688 113.960938 27.425781 113.542969 27.167969 C 113.125 26.910156 112.445312 26.066406 112.03125 25.289062 C 111.433594 24.179688 111.730469 23.433594 113.453125 21.707031 C 119.03125 16.125 122.472656 8.472656 119.402344 8.472656 C 118.902344 8.472656 115.964844 10.546875 112.863281 13.078125 C 107.648438 17.34375 105.222656 18.382812 105.738281 16.136719 C 105.875 15.554688 105.414062 15.394531 104.496094 15.683594 C 103.460938 16.015625 102.933594 15.703125 102.644531 14.601562 C 102.054688 12.351562 98.984375 11.378906 97.429688 12.953125 C 95.910156 14.476562 96.066406 15.488281 98.527344 20.109375 C 100.191406 23.25 100.304688 23.882812 99.367188 24.824219 C 98.773438 25.417969 98.28125 26.316406 98.28125 26.808594 C 98.28125 27.308594 97.753906 27.507812 97.101562 27.253906 C 96.445312 27.003906 96.09375 27.089844 96.3125 27.441406 C 96.53125 27.796875 94.832031 30.070312 92.539062 32.496094 C 90.242188 34.921875 88.316406 37.550781 88.25 38.332031 C 88.1875 39.113281 88.101562 40.175781 88.058594 40.695312 C 88.019531 41.207031 88.875 41.695312 89.96875 41.78125 " fill-opacity="1" fill-rule="nonzero"/><path fill="#000000" d="M 172.238281 19.152344 C 172.679688 19.152344 173.046875 19.496094 173.046875 19.917969 C 173.046875 20.339844 172.894531 20.675781 172.707031 20.675781 C 172.523438 20.675781 172.160156 20.339844 171.898438 19.917969 C 171.640625 19.496094 171.796875 19.152344 172.238281 19.152344 Z M 177.171875 20.628906 C 177.554688 20.699219 178.148438 20.308594 178.492188 19.765625 C 178.964844 19.027344 179.128906 19.125 179.140625 20.140625 C 179.144531 20.898438 179.574219 21.453125 180.097656 21.386719 C 183.507812 20.945312 186.359375 22.699219 185.574219 24.757812 C 185.285156 25.511719 183.160156 26.964844 180.859375 27.984375 C 178.554688 29 176.097656 29.835938 175.390625 29.835938 C 172.472656 29.835938 171.429688 26.441406 173.167969 22.621094 C 173.964844 20.867188 175.199219 20.253906 177.171875 20.628906 Z M 174.621094 37.992188 C 175.433594 37.78125 176.097656 37.878906 176.097656 38.210938 C 176.097656 39.347656 182.582031 38.550781 184.679688 37.15625 C 185.832031 36.390625 186.777344 35.507812 186.777344 35.1875 C 186.777344 34.875 187.386719 34.652344 188.136719 34.703125 C 188.886719 34.753906 191.03125 33.265625 192.90625 31.402344 C 194.78125 29.539062 195.882812 28.273438 195.359375 28.589844 C 194.835938 28.902344 194.410156 28.796875 194.410156 28.355469 C 194.410156 27.910156 194.75 27.546875 195.167969 27.546875 C 196.496094 27.546875 196.085938 20.082031 194.71875 19.3125 C 194.054688 18.941406 193.496094 18.320312 193.484375 17.941406 C 193.445312 16.738281 191.621094 14.5625 191.097656 15.085938 C 190.816406 15.367188 190.589844 15.21875 190.589844 14.761719 C 190.589844 13.578125 185.921875 12.191406 182.667969 12.410156 C 181.152344 12.515625 179.90625 12.804688 179.90625 13.054688 C 179.90625 13.308594 178.195312 13.476562 176.097656 13.429688 C 173.996094 13.386719 172.28125 13.652344 172.28125 14.011719 C 172.28125 14.371094 171.960938 14.464844 171.566406 14.226562 C 170.8125 13.753906 164.65625 19.378906 164.65625 20.527344 C 164.65625 20.90625 165.425781 21.585938 166.371094 22.039062 C 167.796875 22.726562 167.851562 22.875 166.703125 22.917969 C 165.949219 22.945312 165.539062 23.316406 165.808594 23.742188 C 166.070312 24.167969 166.691406 24.277344 167.183594 23.976562 C 167.699219 23.671875 167.636719 23.992188 167.035156 24.730469 C 166.464844 25.441406 165.5 26.019531 164.902344 26.019531 C 163.207031 26.019531 164.019531 31.332031 166.15625 34.222656 C 168.074219 36.816406 172.160156 38.636719 174.621094 37.992188 " fill-opacity="1" fill-rule="nonzero"/><path fill="#000000" d="M 40.628906 180.230469 C 40.144531 181.015625 38.488281 181.125 37.777344 180.417969 C 36.898438 179.535156 37.984375 178.753906 39.53125 179.15625 C 40.367188 179.375 40.859375 179.859375 40.628906 180.230469 Z M 29.898438 175.191406 C 29.660156 174.5625 29.15625 174.238281 28.78125 174.46875 C 28.402344 174.703125 28.097656 174.507812 28.097656 174.039062 C 28.097656 173.570312 27.839844 173.34375 27.523438 173.535156 C 27.207031 173.726562 26.332031 173.0625 25.578125 172.054688 C 24.785156 170.996094 24.574219 170.222656 25.070312 170.222656 C 25.546875 170.222656 25.792969 169.800781 25.617188 169.273438 C 25.175781 167.949219 28.492188 160.050781 29.648438 159.660156 C 30.167969 159.488281 30.375 159.699219 30.109375 160.136719 C 29.605469 160.949219 35.621094 163.355469 38.171875 163.355469 C 41.96875 163.355469 40.421875 172.296875 36.179688 174.886719 C 33.339844 176.613281 30.5 176.753906 29.898438 175.191406 Z M 45.832031 156.300781 C 45.304688 156.40625 44.878906 156.175781 44.878906 155.789062 C 44.878906 155.113281 41.832031 154.199219 38.167969 153.773438 C 37.203125 153.65625 35.898438 153.132812 35.265625 152.609375 C 32.878906 150.628906 23.519531 151.773438 23.519531 154.039062 C 23.519531 154.351562 22.753906 154.941406 21.820312 155.355469 C 19.878906 156.214844 17.558594 160.40625 16.957031 164.121094 C 16.855469 164.75 16.4375 166.335938 16.035156 167.644531 C 15.625 168.949219 15.574219 170.480469 15.925781 171.039062 C 16.269531 171.601562 16.382812 172.332031 16.175781 172.667969 C 15.96875 173.007812 16.074219 173.707031 16.40625 174.230469 C 16.738281 174.753906 17.011719 175.402344 17.023438 175.671875 C 17.054688 177.023438 22.382812 183.359375 24.332031 184.367188 C 25.5625 185.003906 26.574219 185.273438 26.574219 184.972656 C 26.574219 184.667969 26.964844 184.8125 27.457031 185.300781 C 27.945312 185.785156 28.546875 186.066406 28.792969 185.910156 C 29.035156 185.765625 31.472656 185.523438 34.199219 185.382812 C 39.128906 185.132812 39.1875 185.097656 43.546875 180.65625 C 45.957031 178.195312 47.738281 175.875 47.503906 175.492188 C 47.269531 175.113281 47.441406 174.804688 47.886719 174.804688 C 48.332031 174.804688 48.640625 174.546875 48.574219 174.230469 C 48.507812 173.917969 48.726562 173.023438 49.066406 172.246094 C 49.46875 171.316406 49.3125 170.574219 48.617188 170.078125 C 47.78125 169.480469 47.835938 169.410156 48.886719 169.75 C 49.652344 169.996094 50.246094 169.78125 50.277344 169.246094 C 50.304688 168.738281 50.484375 167.496094 50.667969 166.503906 C 50.851562 165.503906 50.613281 164.214844 50.136719 163.640625 C 49.484375 162.855469 49.496094 162.597656 50.179688 162.597656 C 50.730469 162.597656 50.472656 161.738281 49.53125 160.410156 C 48.675781 159.207031 48.214844 157.988281 48.503906 157.699219 C 48.792969 157.410156 48.425781 157.40625 47.683594 157.6875 C 46.769531 158.039062 46.417969 157.871094 46.5625 157.15625 C 46.6875 156.582031 46.355469 156.199219 45.832031 156.300781 " fill-opacity="1" fill-rule="nonzero"/><path fill="#000000" d="M 106.492188 103.289062 C 105.125 103.921875 103.316406 104.632812 102.476562 104.875 C 100.769531 105.367188 98.28125 104.214844 98.28125 102.941406 C 98.28125 102.480469 97.679688 101.632812 96.945312 101.054688 C 96.214844 100.480469 95.953125 100.054688 96.375 100.109375 C 98.257812 100.359375 99.046875 99.929688 99.046875 98.65625 C 99.046875 96.113281 103.277344 90.539062 106.496094 88.84375 L 109.621094 87.191406 L 110.398438 89.414062 C 110.824219 90.632812 111.535156 91.640625 111.976562 91.640625 C 112.414062 91.640625 112.773438 92.984375 112.773438 94.628906 C 112.773438 98.136719 110.328125 101.511719 106.492188 103.289062 Z M 116.980469 84.007812 C 116.015625 84.007812 115.027344 83.484375 114.785156 82.84375 C 114.351562 81.726562 111.496094 81.878906 109.34375 83.136719 C 108.125 83.847656 106.632812 83.929688 107.042969 83.261719 C 107.25 82.929688 106.652344 82.453125 105.710938 82.207031 C 102.625 81.398438 92.179688 88.105469 92.179688 90.890625 C 92.179688 91.671875 91.832031 92.523438 91.40625 92.789062 C 90.980469 93.046875 90.117188 94.488281 89.496094 95.976562 C 88.578125 98.179688 88.519531 99.632812 89.167969 103.726562 C 89.609375 106.496094 90.324219 108.984375 90.761719 109.25 C 91.195312 109.519531 91.554688 110.042969 91.566406 110.414062 C 91.574219 110.785156 93.175781 112.03125 95.121094 113.179688 C 98.683594 115.277344 103.125 115.949219 104.003906 114.523438 C 104.265625 114.097656 105.328125 113.90625 106.355469 114.089844 C 107.386719 114.277344 108.074219 114.179688 107.882812 113.871094 C 107.695312 113.5625 109.410156 112.503906 111.699219 111.519531 C 113.980469 110.53125 115.691406 109.554688 115.488281 109.355469 C 115.289062 109.152344 116.277344 107.574219 117.6875 105.847656 C 119.097656 104.113281 120.75 101.480469 121.367188 99.988281 C 123.734375 94.265625 120.914062 84.007812 116.980469 84.007812 " fill-opacity="1" fill-rule="nonzero"/><path fill="#000000" d="M 168.085938 188.535156 C 167.828125 188.957031 167.464844 189.300781 167.277344 189.300781 C 167.089844 189.300781 166.945312 188.957031 166.945312 188.535156 C 166.945312 188.117188 167.304688 187.773438 167.753906 187.773438 C 168.195312 187.773438 168.347656 188.117188 168.085938 188.535156 Z M 168.46875 165.644531 C 167.78125 165.203125 167.6875 164.902344 168.234375 164.898438 C 168.730469 164.890625 169.355469 165.222656 169.609375 165.644531 C 170.199219 166.597656 169.933594 166.597656 168.46875 165.644531 Z M 189.230469 164.699219 C 190.21875 164.371094 189.402344 160.308594 188.351562 160.308594 C 187.492188 160.308594 182.1875 165.40625 180.492188 167.859375 C 179.253906 169.652344 179.1875 169.660156 177.160156 168.335938 C 174.667969 166.699219 171.578125 163.289062 171.542969 162.144531 C 171.527344 161.683594 170.335938 160.671875 168.890625 159.890625 C 166.328125 158.507812 166.214844 158.507812 164.695312 159.890625 C 162.921875 161.492188 162.492188 165.289062 164.152344 164.65625 C 164.714844 164.4375 165.65625 164.570312 166.25 164.941406 C 167.15625 165.519531 167.144531 165.632812 166.179688 165.695312 C 165.550781 165.738281 166.0625 166.242188 167.320312 166.820312 C 168.582031 167.394531 169.164062 167.882812 168.613281 167.902344 C 168.066406 167.917969 167.8125 168.257812 168.054688 168.644531 C 168.292969 169.039062 168.144531 169.574219 167.71875 169.835938 C 166.164062 170.796875 167.007812 172.535156 169.992188 174.515625 C 173.085938 176.558594 173.875 177.851562 172.035156 177.851562 C 171.484375 177.851562 170.476562 178.972656 169.800781 180.335938 C 166.402344 187.199219 165.605469 189.140625 165.125 191.71875 C 164.699219 194.035156 164.839844 194.574219 165.964844 194.816406 C 167.5 195.160156 172.113281 191.355469 176.089844 186.476562 C 179.109375 182.765625 180 183.027344 182.359375 188.34375 C 183.625 191.199219 184.09375 191.589844 186.277344 191.589844 C 187.644531 191.589844 189.175781 191.171875 189.679688 190.671875 C 190.691406 189.652344 190.90625 187.308594 190.023438 186.820312 C 189.703125 186.640625 189.886719 186.605469 190.414062 186.734375 C 192.03125 187.128906 191.027344 182.066406 188.988281 179.519531 C 187.984375 178.261719 186.402344 176.875 185.488281 176.4375 C 183.722656 175.597656 183.324219 172.515625 184.984375 172.515625 C 185.496094 172.515625 186.351562 171.3125 186.878906 169.84375 C 187.410156 168.371094 188.160156 167.171875 188.535156 167.171875 C 188.917969 167.171875 189.039062 166.679688 188.808594 166.078125 C 188.578125 165.476562 188.765625 164.851562 189.230469 164.699219 " fill-opacity="1" fill-rule="nonzero"/><path fill="#000000" d="M 184.738281 97.425781 C 184.125 99.015625 177.054688 103.847656 175.332031 103.847656 C 174.492188 103.847656 173.804688 104.191406 173.804688 104.605469 C 173.804688 105.710938 172.898438 105.523438 170.976562 104.019531 C 169.527344 102.890625 169.378906 102.316406 169.933594 100.035156 C 170.964844 95.742188 172.179688 93.164062 173.15625 93.164062 C 173.652344 93.164062 173.832031 92.933594 173.558594 92.660156 C 173.28125 92.382812 173.734375 91.679688 174.570312 91.09375 C 175.886719 90.167969 176.539062 90.234375 179.609375 91.589844 C 181.542969 92.449219 183.433594 92.960938 183.808594 92.734375 C 184.183594 92.496094 184.511719 92.589844 184.546875 92.929688 C 184.578125 93.269531 184.726562 94.179688 184.875 94.960938 C 185.023438 95.742188 184.960938 96.847656 184.738281 97.425781 Z M 194.472656 90.820312 C 194.332031 89.90625 190.128906 85.710938 188.511719 84.863281 C 187.578125 84.378906 185.4375 83.894531 183.746094 83.796875 C 182.0625 83.707031 180.679688 83.394531 180.679688 83.109375 C 180.671875 82.378906 177.023438 82.957031 173.429688 84.261719 C 171.746094 84.871094 170.460938 85.75 170.566406 86.214844 C 170.671875 86.679688 170.242188 87.058594 169.609375 87.058594 C 168.980469 87.058594 168.46875 87.359375 168.46875 87.734375 C 168.46875 88.105469 167.785156 88.585938 166.945312 88.804688 C 165.066406 89.296875 162.222656 95.453125 161.945312 99.625 C 161.835938 101.289062 161.398438 102.769531 160.972656 102.910156 C 160.5 103.066406 160.441406 103.996094 160.820312 105.304688 C 161.765625 108.601562 163.128906 110.800781 163.921875 110.308594 C 164.328125 110.0625 164.417969 110.441406 164.136719 111.179688 C 163.792969 112.0625 163.917969 112.308594 164.523438 111.9375 C 165.015625 111.632812 165.414062 111.683594 165.414062 112.046875 C 165.414062 112.40625 166.359375 113.082031 167.511719 113.539062 C 169.625 114.375 173.773438 114.292969 178 113.335938 C 179.261719 113.046875 181.636719 111.398438 183.28125 109.664062 C 184.925781 107.933594 185.824219 107.113281 185.285156 107.851562 C 184.535156 108.867188 184.527344 109.183594 185.230469 109.183594 C 185.738281 109.183594 186.328125 108.539062 186.53125 107.746094 C 186.765625 106.851562 187.394531 106.4375 188.199219 106.648438 C 189.519531 106.992188 193.1875 104.410156 192.441406 103.660156 C 192.210938 103.429688 192.671875 102.042969 193.457031 100.574219 C 194.652344 98.339844 195.058594 94.488281 194.472656 90.820312 " fill-opacity="1" fill-rule="nonzero"/><path fill="#000000" d="M 143.25 84.769531 C 142.851562 84.769531 142.527344 84.425781 142.527344 84.007812 C 142.527344 83.585938 143.0625 83.246094 143.71875 83.246094 C 144.375 83.246094 144.699219 83.585938 144.433594 84.007812 C 144.179688 84.425781 143.644531 84.769531 143.25 84.769531 Z M 142.484375 26.019531 C 142.925781 26.019531 143.292969 26.367188 143.292969 26.777344 C 143.292969 27.199219 143.140625 27.546875 142.953125 27.546875 C 142.769531 27.546875 142.40625 27.199219 142.144531 26.777344 C 141.890625 26.367188 142.042969 26.019531 142.484375 26.019531 Z M 141.355469 177.140625 C 140.734375 178.140625 140.496094 178.03125 140.496094 176.742188 C 140.496094 176.132812 140.785156 175.8125 141.144531 176.03125 C 141.5 176.25 141.59375 176.753906 141.355469 177.140625 Z M 137.949219 125.210938 C 137.535156 125.210938 137.191406 124.867188 137.191406 124.445312 C 137.191406 124.027344 137.535156 123.679688 137.949219 123.679688 C 138.371094 123.679688 138.714844 124.027344 138.714844 124.445312 C 138.714844 124.867188 138.371094 125.210938 137.949219 125.210938 Z M 137.480469 175.90625 C 136.972656 177.230469 136.425781 177.46875 136.425781 176.371094 C 136.425781 175.980469 136.765625 175.449219 137.179688 175.191406 C 137.609375 174.925781 137.742188 175.230469 137.480469 175.90625 Z M 135.632812 116.398438 C 135.929688 117.21875 135.855469 119.445312 135.472656 121.355469 C 134.875 124.359375 134.347656 128.621094 134.183594 131.882812 C 134.152344 132.578125 132.140625 132.839844 126.84375 132.839844 C 122.828125 132.839844 118.964844 133.140625 118.257812 133.511719 C 117.511719 133.898438 116.210938 133.898438 115.15625 133.5 C 114.15625 133.125 103.945312 132.949219 92.460938 133.105469 C 74.765625 133.351562 71.582031 133.234375 71.582031 132.308594 C 71.582031 131.640625 71.214844 131.445312 70.625 131.796875 C 69.96875 132.1875 69.996094 131.96875 70.710938 131.085938 C 71.285156 130.378906 71.878906 128.074219 72.042969 125.953125 C 72.203125 123.839844 72.480469 120.9375 72.65625 119.507812 C 72.851562 117.953125 72.617188 116.753906 72.089844 116.539062 C 71.507812 116.296875 71.566406 116.152344 72.246094 116.113281 C 73.089844 116.066406 73.109375 115.828125 72.34375 114.90625 C 71.820312 114.277344 71.695312 113.765625 72.0625 113.765625 C 73.152344 113.765625 73.6875 85.5625 72.628906 83.847656 C 72.289062 83.300781 72.507812 83.140625 73.230469 83.421875 C 74.191406 83.789062 74.378906 82.5625 74.445312 75.472656 C 74.480469 70.859375 74.699219 66.898438 74.929688 66.675781 C 75.152344 66.445312 75.015625 65.652344 74.625 64.914062 C 74.0625 63.859375 74.269531 63.460938 75.605469 63.027344 C 78.796875 62.007812 79.898438 61.902344 80.308594 62.570312 C 80.535156 62.9375 82.015625 63.050781 83.589844 62.820312 C 85.167969 62.59375 87.144531 62.375 87.980469 62.335938 C 88.824219 62.292969 89.761719 61.921875 90.070312 61.5 C 90.433594 61 90.632812 61.019531 90.640625 61.542969 C 90.652344 62.214844 100.410156 62.527344 101.144531 61.882812 C 101.378906 61.675781 104.3125 61.652344 104.574219 61.859375 C 105.222656 62.363281 108.203125 62.273438 108.203125 61.75 C 108.203125 61.402344 108.5625 61.117188 109.011719 61.117188 C 109.453125 61.117188 109.574219 61.515625 109.273438 61.996094 C 108.933594 62.542969 109.0625 62.675781 109.605469 62.335938 C 110.089844 62.035156 111.207031 62.296875 112.085938 62.914062 C 113.519531 63.914062 113.960938 63.871094 116.332031 62.472656 C 118.238281 61.347656 119.210938 61.140625 119.8125 61.742188 C 120.375 62.308594 121.089844 62.328125 122.0625 61.808594 C 122.847656 61.390625 123.90625 61.320312 124.425781 61.652344 C 124.941406 61.992188 127.425781 62.308594 129.941406 62.363281 C 136.878906 62.515625 137.316406 62.582031 136.808594 63.40625 C 136.550781 63.828125 136.617188 64.171875 136.953125 64.171875 C 137.6875 64.167969 137.5625 71.601562 136.792969 73.527344 C 136.496094 74.269531 136.675781 75.378906 137.195312 76.007812 C 137.863281 76.804688 137.886719 77.136719 137.277344 77.136719 C 136.691406 77.136719 136.429688 79.324219 136.464844 83.816406 C 136.5625 95.558594 136.019531 113.359375 135.550781 114.144531 C 135.300781 114.566406 135.332031 115.578125 135.632812 116.398438 Z M 113.539062 136.652344 C 112.699219 136.652344 112.015625 136.523438 112.015625 136.363281 C 112.015625 136.199219 112.699219 135.886719 113.539062 135.667969 C 114.382812 135.449219 115.0625 135.582031 115.0625 135.964844 C 115.0625 136.34375 114.382812 136.652344 113.539062 136.652344 Z M 73.105469 66.460938 C 73.527344 66.460938 73.871094 66.800781 73.871094 67.222656 C 73.871094 67.640625 73.527344 67.984375 73.105469 67.984375 C 72.6875 67.984375 72.34375 67.640625 72.34375 67.222656 C 72.34375 66.800781 72.6875 66.460938 73.105469 66.460938 Z M 73.152344 44.332031 C 73.597656 44.332031 73.75 44.675781 73.488281 45.097656 C 73.230469 45.515625 72.863281 45.855469 72.679688 45.855469 C 72.492188 45.855469 72.34375 45.515625 72.34375 45.097656 C 72.34375 44.675781 72.707031 44.332031 73.152344 44.332031 Z M 121.050781 54.707031 C 120.464844 55.0625 120.378906 54.910156 120.785156 54.253906 C 121.265625 53.472656 121.625 53.566406 122.429688 54.664062 C 123.242188 55.777344 123.257812 56.195312 122.503906 56.675781 C 121.980469 57.007812 121.203125 57.257812 120.789062 57.230469 C 120.367188 57.203125 120.457031 57.007812 120.980469 56.792969 C 121.503906 56.585938 121.929688 55.90625 121.929688 55.285156 C 121.929688 54.632812 121.566406 54.386719 121.050781 54.707031 Z M 67.859375 65.695312 C 66.96875 65.695312 66.242188 65.371094 66.242188 64.980469 C 66.242188 63.65625 67.582031 63.414062 68.539062 64.558594 C 69.316406 65.503906 69.210938 65.695312 67.859375 65.695312 Z M 41.019531 62.640625 C 40.574219 62.640625 40.421875 62.304688 40.683594 61.882812 C 40.941406 61.460938 41.308594 61.117188 41.496094 61.117188 C 41.679688 61.117188 41.828125 61.460938 41.828125 61.882812 C 41.828125 62.304688 41.464844 62.640625 41.019531 62.640625 Z M 221.292969 143.035156 C 220.769531 143.351562 220.34375 143.285156 220.34375 142.894531 C 220.34375 142.066406 214.25 140.371094 213.332031 140.9375 C 212.992188 141.148438 212.710938 140.984375 212.710938 140.578125 C 212.710938 139.875 211.453125 139.464844 206.609375 138.5625 C 205.558594 138.363281 203.84375 138.039062 202.796875 137.839844 C 200.210938 137.347656 193.140625 136.511719 189.617188 136.289062 C 188.03125 136.1875 186.535156 135.902344 186.296875 135.664062 C 186.054688 135.421875 185.011719 135.542969 183.984375 135.9375 C 182.953125 136.332031 182.269531 136.390625 182.460938 136.078125 C 182.65625 135.765625 181.558594 135.46875 180.023438 135.414062 C 178.492188 135.363281 174.492188 135.074219 171.132812 134.773438 C 166.046875 134.320312 152.828125 134.042969 152.828125 134.386719 C 152.828125 134.445312 151.855469 134.648438 150.664062 134.84375 C 149.273438 135.066406 148.671875 134.910156 148.992188 134.402344 C 149.257812 133.960938 148.949219 133.558594 148.292969 133.503906 C 146.085938 133.332031 145.707031 133.222656 145.066406 132.582031 C 144.332031 131.84375 144.054688 123.664062 144.730469 122.539062 C 145.085938 121.945312 145.664062 107.066406 145.570312 100.792969 C 145.550781 100.164062 145.550781 98.824219 145.558594 97.820312 C 145.570312 96.8125 145.144531 95.460938 144.621094 94.8125 C 143.859375 93.867188 143.859375 93.75 144.632812 94.207031 C 145.855469 94.945312 146.707031 92.863281 145.921875 91.066406 C 145.597656 90.328125 145.445312 89.386719 145.578125 88.96875 C 145.707031 88.546875 145.894531 85.058594 145.984375 81.21875 C 146.085938 77.371094 146.378906 73.878906 146.648438 73.449219 C 146.910156 73.019531 146.785156 72.457031 146.359375 72.191406 C 145.542969 71.691406 145.445312 63.433594 146.25 63.367188 C 146.511719 63.347656 150.265625 63.183594 154.589844 63.003906 C 158.914062 62.820312 162.828125 62.445312 163.289062 62.160156 C 163.757812 61.871094 163.90625 61.992188 163.628906 62.445312 C 163.351562 62.886719 163.648438 63.445312 164.273438 63.683594 C 164.902344 63.925781 165.414062 63.800781 165.414062 63.40625 C 165.414062 63.015625 169.070312 62.664062 173.613281 62.628906 C 187.273438 62.519531 188.710938 62.386719 188.449219 61.175781 C 188.261719 60.3125 188.4375 60.28125 189.320312 61.011719 C 190.191406 61.742188 191.128906 61.660156 193.753906 60.640625 C 197.199219 59.300781 199.746094 57.523438 199.746094 56.441406 C 199.746094 55.269531 196.328125 53.597656 192.933594 53.101562 C 186.921875 52.226562 178.117188 52.375 177.789062 53.351562 C 177.625 53.855469 177.195312 54.074219 176.828125 53.851562 C 176.460938 53.625 176.351562 52.847656 176.582031 52.128906 C 176.828125 51.363281 176.734375 51.132812 176.355469 51.582031 C 175.210938 52.9375 172.8125 53.257812 170.183594 52.414062 C 169.183594 52.089844 168.464844 52.179688 168.464844 52.613281 C 168.464844 53.34375 163.585938 53.097656 162.308594 52.308594 C 161.976562 52.105469 161.503906 52.257812 161.261719 52.652344 C 161.003906 53.066406 159.917969 53.117188 158.722656 52.773438 C 157.570312 52.445312 155.941406 52.417969 155.109375 52.722656 C 154.273438 53.023438 152.902344 53.15625 152.0625 53.007812 C 151.226562 52.867188 149.421875 52.660156 148.058594 52.542969 C 145.636719 52.347656 145.582031 52.257812 145.5 48.527344 C 145.457031 46.429688 145.332031 42.996094 145.226562 40.902344 C 145.121094 38.800781 145.414062 36.589844 145.875 35.980469 C 146.429688 35.265625 146.441406 35.050781 145.910156 35.371094 C 145.355469 35.699219 145.042969 32.878906 144.921875 26.550781 C 144.757812 18.054688 144.566406 15.574219 143.648438 10.050781 C 143.480469 9.027344 142.769531 7.65625 142.0625 7 C 141.359375 6.339844 141.027344 6.230469 141.320312 6.753906 C 141.648438 7.339844 141.390625 7.707031 140.664062 7.707031 C 140.007812 7.707031 139.445312 8.136719 139.414062 8.660156 C 139.375 9.1875 139.238281 10.476562 139.109375 11.523438 C 138.449219 16.769531 138.164062 28.871094 138.671875 30.214844 C 139.019531 31.128906 138.855469 32.355469 138.265625 33.265625 C 137.566406 34.347656 137.332031 37.445312 137.46875 43.824219 L 137.652344 52.855469 L 135.511719 52.539062 C 134.300781 52.363281 133.371094 52.582031 133.359375 53.046875 C 133.355469 53.554688 133.128906 53.523438 132.769531 52.953125 C 132.414062 52.402344 131.773438 52.296875 131.152344 52.679688 C 130.585938 53.035156 129.160156 53.046875 127.988281 52.710938 C 126.8125 52.375 125.667969 52.292969 125.433594 52.527344 C 125.199219 52.761719 122.511719 52.871094 119.460938 52.769531 C 116.414062 52.660156 111.855469 52.589844 109.34375 52.601562 C 106.824219 52.621094 102.191406 52.621094 99.046875 52.601562 C 95.898438 52.589844 92.894531 52.621094 92.371094 52.667969 C 90.238281 52.871094 88.632812 52.84375 86.457031 52.550781 C 83.902344 52.210938 80.5625 53.355469 81.183594 54.363281 C 81.402344 54.71875 81.222656 55.011719 80.78125 55.011719 C 80.332031 55.011719 79.972656 54.472656 79.972656 53.8125 C 79.972656 53.035156 79.367188 52.664062 78.25 52.753906 C 77.3125 52.828125 76.191406 52.855469 75.777344 52.8125 C 75.296875 52.757812 75.078125 48.539062 75.191406 41.46875 C 75.492188 22.25 75.464844 20.429688 74.847656 19.976562 C 74.515625 19.730469 74.128906 18.550781 73.988281 17.351562 C 73.804688 15.75 73.988281 15.320312 74.695312 15.761719 C 75.378906 16.179688 75.507812 15.96875 75.144531 15.015625 C 74.859375 14.285156 74.628906 12.710938 74.628906 11.515625 C 74.628906 10.324219 74.183594 8.890625 73.636719 8.332031 C 73.089844 7.78125 72.410156 6.734375 72.136719 6.007812 C 70.847656 2.601562 67.566406 7.707031 67.375 13.410156 C 67.3125 15.160156 67.082031 16.910156 66.871094 17.300781 C 66.652344 17.6875 66.527344 19.039062 66.59375 20.296875 C 66.652344 21.558594 66.445312 23.347656 66.121094 24.277344 C 65.789062 25.222656 65.855469 26.164062 66.269531 26.417969 C 66.746094 26.714844 66.746094 27.371094 66.269531 28.257812 C 65.863281 29.015625 65.703125 29.800781 65.910156 30.007812 C 66.648438 30.746094 66.898438 33.621094 66.265625 34.015625 C 65.910156 34.234375 65.800781 35.097656 66.019531 35.933594 C 66.238281 36.761719 66.648438 37.304688 66.9375 37.125 C 67.21875 36.949219 67.953125 37.105469 68.558594 37.484375 C 69.457031 38.035156 69.476562 38.347656 68.679688 39.140625 C 67.886719 39.9375 67.578125 39.917969 67.011719 39.003906 C 66.429688 38.050781 66.25 38.085938 65.816406 39.210938 C 65.53125 39.945312 65.484375 41.222656 65.703125 42.054688 C 65.917969 42.890625 65.730469 43.566406 65.28125 43.566406 C 64.828125 43.566406 64.667969 43.773438 64.921875 44.03125 C 65.171875 44.28125 65.0625 45.324219 64.675781 46.347656 C 64.078125 47.90625 64.242188 48.308594 65.675781 48.886719 C 66.992188 49.417969 67.078125 49.585938 66.050781 49.625 C 65.152344 49.660156 64.714844 50.285156 64.714844 51.554688 C 64.714844 53.023438 65.007812 53.335938 66.050781 52.957031 C 66.785156 52.699219 67.160156 52.734375 66.882812 53.046875 C 65.976562 54.050781 54.421875 54.894531 53.546875 54.011719 C 53.285156 53.753906 52.386719 53.90625 51.550781 54.351562 C 50.40625 54.96875 50.175781 54.941406 50.601562 54.25 C 51.03125 53.554688 50.792969 53.53125 49.605469 54.171875 C 47.722656 55.175781 41.757812 55.75 42.296875 54.871094 C 42.511719 54.527344 42.128906 54.25 41.445312 54.25 C 40.765625 54.25 40.367188 54.507812 40.566406 54.820312 C 40.753906 55.140625 38.632812 55.394531 35.839844 55.394531 C 33.046875 55.394531 30.445312 55.539062 30.054688 55.71875 C 29.664062 55.894531 26.699219 56.128906 23.46875 56.238281 C 16.957031 56.460938 11.949219 58.3125 11.625 60.613281 C 11.515625 61.390625 11.625 61.820312 11.871094 61.574219 C 12.117188 61.332031 12.78125 61.519531 13.355469 61.996094 C 13.929688 62.472656 14.621094 62.640625 14.886719 62.378906 C 15.148438 62.109375 15.761719 62.21875 16.246094 62.621094 C 17.660156 63.792969 28.234375 64.242188 29.546875 63.175781 C 30.195312 62.652344 30.464844 62.613281 30.183594 63.089844 C 29.835938 63.667969 31.941406 63.882812 37.089844 63.804688 C 41.164062 63.746094 44.84375 63.914062 45.261719 64.191406 C 46.285156 64.859375 52.59375 64.167969 52.148438 63.433594 C 51.949219 63.117188 53.066406 63.039062 54.628906 63.261719 C 58.15625 63.757812 60.933594 63.789062 62.421875 63.359375 C 63.074219 63.167969 63.484375 63.449219 63.367188 64.007812 C 63.257812 64.546875 63.527344 65.667969 63.96875 66.488281 C 64.570312 67.609375 64.519531 68 63.789062 68.046875 C 63.023438 68.089844 63.019531 68.1875 63.761719 68.488281 C 65.011719 68.996094 64.976562 71.128906 63.667969 73.640625 C 62.8125 75.296875 62.796875 76.160156 63.578125 78.4375 C 64.117188 80.011719 64.292969 82.070312 63.980469 83.1875 C 63.675781 84.269531 63.476562 91.847656 63.539062 100.027344 C 63.621094 111.164062 63.390625 115.335938 62.636719 116.628906 C 62.035156 117.640625 61.945312 118.34375 62.410156 118.34375 C 62.839844 118.34375 63.1875 118.855469 63.1875 119.484375 C 63.1875 120.113281 62.933594 120.632812 62.613281 120.632812 C 62.304688 120.632812 62.046875 123.414062 62.046875 126.804688 C 62.050781 130.199219 61.722656 133.183594 61.320312 133.429688 C 60.558594 133.898438 55.421875 134.363281 51.226562 134.335938 C 49.902344 134.332031 48.589844 134.679688 48.316406 135.117188 C 48.050781 135.554688 47.421875 135.65625 46.925781 135.347656 C 45.640625 134.527344 41.882812 134.425781 41.410156 135.1875 C 41.195312 135.542969 40.195312 135.523438 39.1875 135.140625 C 38.183594 134.757812 36.457031 134.609375 35.347656 134.8125 C 34.234375 135.011719 30.003906 135.351562 25.945312 135.566406 C 21.886719 135.777344 18.046875 135.992188 17.417969 136.046875 C 16.789062 136.097656 15.839844 136.6875 15.308594 137.347656 C 14.777344 138.015625 14.390625 138.214844 14.445312 137.796875 C 14.667969 136.097656 14.308594 135.75 13.226562 136.648438 C 12.601562 137.164062 12.28125 137.894531 12.511719 138.265625 C 12.738281 138.636719 12.523438 138.941406 12.03125 138.941406 C 10.050781 138.941406 12.957031 141.082031 15.609375 141.582031 C 17.734375 141.980469 18.546875 141.789062 19.371094 140.707031 C 20.289062 139.496094 20.421875 139.476562 20.445312 140.570312 C 20.457031 141.46875 21.464844 141.96875 23.96875 142.347656 C 26.851562 142.777344 27.648438 142.625 28.519531 141.476562 C 29.140625 140.660156 29.582031 140.476562 29.601562 141.039062 C 29.625 142.226562 31.910156 142.320312 31.910156 141.136719 C 31.910156 140.578125 32.34375 140.640625 33.164062 141.320312 C 33.988281 142.007812 36.683594 142.378906 41.171875 142.429688 C 44.886719 142.46875 48.109375 142.679688 48.332031 142.902344 C 48.558594 143.128906 50.527344 142.898438 52.722656 142.394531 C 56.566406 141.515625 61.757812 142.074219 61.566406 143.351562 C 61.324219 144.941406 61.761719 145.839844 62.542969 145.355469 C 63.097656 145.011719 63.214844 145.144531 62.871094 145.703125 C 62.570312 146.195312 62.003906 146.402344 61.609375 146.160156 C 61.222656 145.914062 60.902344 146.394531 60.902344 147.226562 C 60.902344 148.058594 60.691406 149.28125 60.4375 149.941406 C 60.136719 150.734375 60.398438 151.148438 61.199219 151.148438 C 61.871094 151.148438 62.421875 151.515625 62.421875 151.957031 C 62.421875 152.398438 62.109375 152.570312 61.714844 152.328125 C 60.058594 151.300781 59.429688 155 59.402344 165.859375 C 59.386719 173.507812 59.472656 174.21875 60.511719 174.960938 C 60.925781 175.257812 61.277344 176.113281 61.277344 176.867188 C 61.277344 177.621094 61.699219 178.152344 62.210938 178.054688 C 62.761719 177.945312 62.949219 178.355469 62.675781 179.074219 C 62.320312 180 62.636719 180.21875 64.035156 180.019531 C 65.042969 179.878906 65.746094 179.457031 65.605469 179.082031 C 65.460938 178.710938 65.664062 178.195312 66.050781 177.941406 C 67.902344 176.710938 69.292969 167.355469 69.535156 154.464844 C 69.613281 150.625 69.929688 147.640625 70.246094 147.832031 C 70.855469 148.210938 71.0625 147.160156 70.871094 144.640625 C 70.699219 142.429688 74.65625 141.203125 80.355469 141.703125 C 88.757812 142.433594 98.652344 142.515625 99.953125 141.871094 C 100.714844 141.488281 101.4375 141.542969 101.722656 142.003906 C 102.011719 142.472656 102.667969 142.515625 103.398438 142.101562 C 104.0625 141.734375 105.242188 141.597656 106.023438 141.800781 C 106.835938 142.011719 107.4375 141.773438 107.4375 141.226562 C 107.4375 140.476562 107.675781 140.476562 108.582031 141.230469 C 109.261719 141.800781 110.660156 141.996094 112.015625 141.730469 C 113.273438 141.476562 114.304688 141.578125 114.304688 141.953125 C 114.304688 142.554688 116.5 142.75 122.3125 142.683594 C 128.109375 142.613281 130.324219 142.335938 130.324219 141.679688 C 130.324219 141.265625 130.730469 141.335938 131.242188 141.84375 C 131.742188 142.347656 133.027344 142.761719 134.097656 142.765625 C 135.203125 142.777344 135.671875 143.023438 135.191406 143.34375 C 134.585938 143.734375 134.421875 148.203125 134.636719 158.398438 C 135.027344 176.835938 134.9375 176.15625 137.191406 177.878906 C 138.273438 178.714844 138.644531 179.355469 138.054688 179.363281 C 137.375 179.375 137.15625 179.933594 137.425781 180.96875 C 137.726562 182.101562 137.539062 182.4375 136.792969 182.152344 C 135.972656 181.835938 135.902344 182.113281 136.480469 183.425781 C 136.886719 184.351562 137.421875 185.703125 137.671875 186.4375 C 137.921875 187.171875 138.457031 187.773438 138.855469 187.773438 C 139.253906 187.773438 139.363281 188.457031 139.097656 189.300781 C 138.828125 190.140625 138.953125 190.824219 139.375 190.824219 C 139.796875 190.824219 140.355469 191.511719 140.621094 192.355469 L 140.621094 192.347656 C 141.140625 193.976562 143.625 194.425781 144.476562 193.050781 C 145.421875 191.519531 145.679688 182.328125 144.804688 181.277344 C 144.179688 180.515625 144.308594 180.070312 145.347656 179.464844 C 146.308594 178.90625 146.402344 178.65625 145.640625 178.640625 C 145.054688 178.628906 144.753906 178.425781 144.980469 178.195312 C 145.214844 177.964844 145.128906 176.550781 144.789062 175.054688 C 144.453125 173.550781 144.429688 171.628906 144.746094 170.777344 C 145.0625 169.921875 144.90625 168.015625 144.398438 166.542969 C 143.832031 164.90625 143.714844 163.027344 144.085938 161.726562 C 144.417969 160.558594 144.417969 157.613281 144.085938 155.1875 C 143.742188 152.691406 143.769531 150.65625 144.152344 150.511719 C 144.523438 150.375 144.644531 149.964844 144.421875 149.601562 C 144.199219 149.246094 144.234375 147.625 144.496094 145.996094 L 144.964844 143.046875 L 153.09375 143.210938 C 157.5625 143.300781 162.828125 143.574219 164.808594 143.816406 C 166.839844 144.0625 168.59375 143.929688 168.855469 143.503906 C 169.152344 143.023438 169.925781 143.078125 170.992188 143.65625 C 171.933594 144.171875 176.570312 144.652344 181.648438 144.773438 C 186.585938 144.886719 191.035156 145.238281 191.542969 145.542969 C 192.042969 145.855469 193.664062 146.046875 195.148438 145.96875 C 196.625 145.886719 201.363281 145.804688 205.679688 145.777344 C 209.988281 145.757812 213.371094 145.492188 213.183594 145.199219 C 213.003906 144.902344 214.472656 144.777344 216.453125 144.917969 C 219.191406 145.109375 220.308594 144.851562 221.152344 143.816406 C 221.828125 142.980469 221.886719 142.679688 221.292969 143.035156 " fill-opacity="1" fill-rule="nonzero"/><path fill="#000000" d="M 21.25 114.359375 C 19.476562 115.796875 16.515625 121.765625 17.226562 122.472656 C 18.007812 123.253906 18.902344 122.960938 20.46875 121.390625 C 21.304688 120.554688 21.996094 120.035156 21.996094 120.25 C 21.996094 120.457031 22.644531 120.03125 23.441406 119.292969 C 24.242188 118.5625 26.125 116.933594 27.636719 115.675781 C 30.617188 113.207031 31.054688 112.238281 29.195312 112.238281 C 28.535156 112.238281 28.234375 111.867188 28.519531 111.40625 C 28.882812 110.8125 29.265625 110.8125 29.855469 111.402344 C 30.445312 111.992188 31.144531 111.792969 32.316406 110.691406 C 33.382812 109.691406 33.976562 109.496094 34.03125 110.125 C 34.105469 111.074219 34.703125 113.773438 34.992188 114.527344 C 35.074219 114.734375 35.101562 115.171875 35.046875 115.5 C 34.785156 117.082031 37.449219 120.550781 39.457031 121.25 C 43.144531 122.539062 44.464844 121 43.882812 116.085938 C 43.617188 113.878906 43.027344 111.621094 42.570312 111.070312 C 42.109375 110.519531 41.648438 109.265625 41.539062 108.289062 C 41.421875 107.316406 40.738281 105.386719 40.019531 104.003906 C 38.707031 101.496094 38.710938 101.488281 41.457031 96.960938 C 42.96875 94.476562 44.535156 92.230469 44.933594 91.984375 C 46.082031 91.273438 48.695312 85.753906 48.695312 84.039062 C 48.695312 81.945312 46.464844 82.039062 44.421875 84.214844 C 43.542969 85.148438 41.019531 88.089844 38.8125 90.742188 L 34.800781 95.578125 L 32.179688 91.679688 C 30.730469 89.53125 29.289062 87.941406 28.96875 88.136719 C 28.636719 88.339844 27.78125 87.492188 27.046875 86.253906 C 26.191406 84.804688 25.128906 84.027344 24.050781 84.066406 C 23.125 84.097656 22.804688 84.300781 23.328125 84.515625 C 24.671875 85.054688 24.519531 87.058594 23.136719 87.058594 C 21.878906 87.058594 21.5625 88.308594 22.714844 88.710938 C 23.695312 89.054688 30.410156 102.316406 29.601562 102.316406 C 29.25 102.316406 28.757812 102.917969 28.511719 103.65625 C 28.265625 104.386719 26.699219 106.480469 25.027344 108.300781 C 23.355469 110.121094 22.1875 111.933594 22.433594 112.328125 C 22.671875 112.71875 22.144531 113.632812 21.25 114.359375 " fill-opacity="1" fill-rule="nonzero"/><g clip-path="url(#0f850a1035)"><path fill="#000000" d="M 12.796875 201.371094 C 12.609375 201.371094 12.25 201.027344 11.988281 200.605469 C 11.730469 200.191406 11.882812 199.847656 12.324219 199.847656 C 12.769531 199.847656 13.132812 200.191406 13.132812 200.605469 C 13.132812 201.027344 12.980469 201.371094 12.796875 201.371094 Z M 226.933594 0.210938 C 223.292969 0.652344 218.914062 2.324219 218.113281 3.582031 C 217.769531 4.117188 217.167969 4.351562 216.777344 4.113281 C 216.382812 3.867188 216.054688 3.949219 216.042969 4.289062 C 216.039062 4.628906 214.324219 5.917969 212.230469 7.15625 C 210.144531 8.394531 208.238281 10.035156 207.996094 10.796875 C 207.757812 11.554688 207.210938 11.953125 206.78125 11.691406 C 205.910156 11.15625 202.6875 12.628906 200.578125 14.527344 C 199.824219 15.210938 197.945312 16.410156 196.398438 17.199219 C 194.855469 17.992188 192.511719 19.75 191.195312 21.117188 C 189.882812 22.484375 188.234375 23.597656 187.550781 23.597656 C 186.871094 23.597656 186.308594 23.902344 186.308594 24.277344 C 186.308594 24.65625 183.820312 26.515625 180.777344 28.410156 C 177.734375 30.308594 174.386719 32.609375 173.335938 33.519531 C 172.289062 34.425781 170.492188 35.734375 169.332031 36.414062 C 168.179688 37.097656 167.234375 37.929688 167.234375 38.257812 C 167.234375 38.585938 166.722656 38.851562 166.09375 38.851562 C 165.464844 38.851562 164.945312 39.214844 164.945312 39.65625 C 164.945312 40.097656 163.832031 40.988281 162.46875 41.636719 C 157.640625 43.917969 156.554688 44.5625 156.554688 45.175781 C 156.554688 45.761719 154.757812 47.574219 151.34375 50.425781 C 150.507812 51.132812 149.625 51.507812 149.390625 51.273438 C 149.15625 51.039062 148.746094 51.410156 148.484375 52.097656 C 148.214844 52.785156 147.6875 53.355469 147.304688 53.355469 C 146.921875 53.355469 145.457031 54.46875 144.042969 55.832031 C 142.628906 57.195312 140.042969 59.34375 138.296875 60.601562 C 136.554688 61.859375 134.132812 63.800781 132.917969 64.910156 C 131.710938 66.027344 130.472656 66.707031 130.164062 66.4375 C 129.859375 66.164062 129.816406 66.304688 130.066406 66.746094 C 130.628906 67.742188 127.042969 71.246094 124.703125 71.988281 C 123.757812 72.289062 122.984375 72.828125 122.984375 73.1875 C 122.984375 73.554688 122.375 74.046875 121.625 74.28125 C 120.109375 74.761719 110.023438 83.949219 110.023438 84.851562 C 110.023438 85.652344 105.226562 89.925781 104.289062 89.953125 C 103.867188 89.964844 102.832031 90.894531 102 92.019531 C 101.167969 93.140625 100.039062 94.429688 99.496094 94.875 C 98.949219 95.328125 97.585938 96.554688 96.472656 97.601562 C 95.355469 98.652344 94.179688 99.433594 93.867188 99.332031 C 93.550781 99.230469 93.488281 99.664062 93.726562 100.285156 C 93.964844 100.910156 93.835938 101.421875 93.429688 101.421875 C 93.027344 101.421875 90.5625 103.484375 87.960938 105.996094 C 85.355469 108.515625 82.921875 110.574219 82.558594 110.574219 C 82.195312 110.574219 81.675781 111.261719 81.410156 112.105469 C 81.148438 112.941406 80.4375 113.628906 79.835938 113.628906 C 79.234375 113.628906 78.746094 113.988281 78.746094 114.4375 C 78.746094 114.882812 78.433594 115.054688 78.0625 114.820312 C 77.410156 114.421875 76.308594 116.160156 76.144531 117.824219 C 76.105469 118.246094 75.726562 118.738281 75.308594 118.917969 C 74.886719 119.101562 73.886719 120.089844 73.078125 121.117188 C 70.761719 124.058594 68.191406 126.46875 67.785156 126.070312 C 67.585938 125.867188 66.800781 126.679688 66.042969 127.871094 C 65.28125 129.0625 64.226562 130.304688 63.691406 130.644531 C 63.15625 130.976562 62.722656 131.59375 62.722656 132.015625 C 62.722656 132.4375 60.632812 134.863281 58.074219 137.410156 C 54.976562 140.5 53.554688 142.480469 53.789062 143.375 C 54.035156 144.320312 53.769531 144.628906 52.898438 144.410156 C 52.109375 144.210938 50.96875 145.15625 49.761719 146.988281 C 48.71875 148.574219 47.257812 150.425781 46.523438 151.101562 C 45.777344 151.785156 45.179688 152.679688 45.179688 153.101562 C 45.179688 153.523438 43.800781 155.199219 42.125 156.828125 C 40.445312 158.457031 39.074219 160.238281 39.074219 160.789062 C 39.074219 161.335938 38.730469 161.578125 38.308594 161.3125 C 37.890625 161.058594 37.546875 161.242188 37.546875 161.730469 C 37.546875 162.222656 36.6875 163.296875 35.636719 164.125 C 34.589844 164.949219 33.730469 166.058594 33.730469 166.589844 C 33.730469 167.117188 32.6875 168.476562 31.414062 169.609375 C 30.140625 170.746094 29.285156 171.96875 29.503906 172.328125 C 29.726562 172.6875 29.371094 173.1875 28.722656 173.441406 C 28.066406 173.691406 27.734375 174.214844 27.972656 174.609375 C 28.214844 175.003906 27.726562 175.539062 26.890625 175.808594 C 26.054688 176.066406 25.449219 176.695312 25.546875 177.191406 C 25.640625 177.691406 25.289062 178.015625 24.765625 177.910156 C 24.242188 177.804688 23.816406 178.34375 23.816406 179.105469 C 23.816406 180.199219 20.1875 185.28125 17.730469 187.640625 C 17.511719 187.847656 16.664062 189.328125 15.851562 190.925781 C 15.035156 192.519531 13.625 194.636719 12.714844 195.617188 C 9.921875 198.632812 7.792969 201.925781 7.792969 203.230469 C 7.792969 203.914062 7.308594 204.65625 6.726562 204.878906 C 6.136719 205.109375 5.453125 205.871094 5.207031 206.574219 C 4.960938 207.28125 4.070312 208.882812 3.234375 210.148438 C 0.191406 214.710938 -0.140625 215.738281 0.785156 217.777344 C 1.269531 218.824219 2.121094 219.683594 2.683594 219.683594 C 3.8125 219.683594 7.03125 216.292969 7.03125 215.097656 C 7.03125 214.683594 7.375 214.34375 7.792969 214.34375 C 8.210938 214.34375 8.554688 214.003906 8.554688 213.589844 C 8.554688 213.175781 9.046875 212.230469 9.65625 211.492188 C 13.375 206.929688 17.441406 201.765625 18.089844 200.757812 C 19.480469 198.613281 21.875 195.722656 24.503906 192.996094 C 25.929688 191.519531 27.476562 189.417969 27.933594 188.324219 C 28.394531 187.226562 29.878906 185.402344 31.234375 184.265625 C 32.589844 183.121094 33.617188 181.957031 33.523438 181.675781 C 33.429688 181.382812 34.300781 179.917969 35.453125 178.414062 C 36.605469 176.902344 37.546875 175.269531 37.546875 174.785156 C 37.546875 174.300781 38.003906 173.902344 38.558594 173.902344 C 39.117188 173.902344 40.054688 172.960938 40.632812 171.804688 C 42.160156 168.773438 50.804688 159.410156 52.070312 159.410156 C 52.371094 159.410156 53.070312 158.308594 53.628906 156.972656 C 54.523438 154.808594 59.332031 149.492188 60.398438 149.484375 C 61.429688 149.484375 65.882812 141.890625 65.351562 141.039062 C 64.972656 140.421875 65.089844 140.292969 65.695312 140.667969 C 66.988281 141.464844 77.992188 129.804688 77.402344 128.261719 C 77.117188 127.53125 77.269531 127.304688 77.816406 127.644531 C 79.066406 128.414062 81.613281 126.585938 82.601562 124.207031 C 83.066406 123.078125 84.449219 121.738281 85.671875 121.230469 C 86.894531 120.726562 87.894531 119.996094 87.894531 119.613281 C 87.894531 119.222656 89.273438 117.480469 90.949219 115.734375 C 92.625 113.984375 93.996094 112.300781 93.996094 111.984375 C 93.996094 111.667969 95.113281 110.871094 96.476562 110.207031 C 97.84375 109.546875 99.816406 107.792969 100.867188 106.320312 C 101.914062 104.835938 103.578125 103.296875 104.566406 102.898438 C 105.546875 102.492188 106.53125 101.484375 106.75 100.648438 C 106.96875 99.816406 107.425781 99.132812 107.773438 99.132812 C 108.109375 99.132812 110.152344 97.417969 112.3125 95.320312 C 114.464844 93.222656 117.398438 90.601562 118.835938 89.511719 C 120.273438 88.414062 121.253906 87.207031 121.019531 86.824219 C 120.777344 86.433594 120.914062 86.214844 121.316406 86.332031 C 122.046875 86.542969 126.214844 83.484375 129.710938 80.167969 C 130.753906 79.183594 132.671875 77.785156 133.972656 77.070312 C 135.273438 76.347656 136.65625 75.0625 137.042969 74.210938 C 137.945312 72.21875 142.496094 69.082031 143.546875 69.730469 C 144.265625 70.179688 144.6875 69.207031 144.441406 67.660156 C 144.390625 67.34375 144.605469 67.171875 144.921875 67.277344 C 145.238281 67.382812 146.234375 66.78125 147.136719 65.945312 C 151.171875 62.179688 152.609375 60.984375 153.078125 60.984375 C 153.351562 60.984375 154.417969 60.074219 155.449219 58.960938 C 156.476562 57.851562 157.320312 57.132812 157.320312 57.359375 C 157.320312 57.589844 158.425781 56.742188 159.78125 55.472656 C 161.136719 54.207031 164 52.054688 166.148438 50.683594 C 168.289062 49.3125 170.941406 47.289062 172.039062 46.191406 C 173.136719 45.09375 174.480469 44.195312 175.023438 44.195312 C 175.566406 44.195312 176.988281 43.164062 178.171875 41.90625 C 179.363281 40.652344 180.757812 39.617188 181.273438 39.617188 C 181.792969 39.617188 182.964844 38.761719 183.875 37.710938 C 184.789062 36.660156 185.902344 35.804688 186.351562 35.804688 C 186.792969 35.804688 186.914062 35.371094 186.613281 34.847656 C 186.3125 34.324219 186.335938 34.136719 186.664062 34.4375 C 187.226562 34.941406 191.550781 33.144531 192.410156 32.054688 C 193.382812 30.820312 199.207031 26.644531 199.960938 26.644531 C 200.425781 26.644531 200.800781 26.285156 200.800781 25.839844 C 200.800781 25.394531 201.097656 25.210938 201.453125 25.433594 C 201.808594 25.652344 202.820312 25.15625 203.707031 24.335938 C 204.59375 23.511719 205.679688 22.832031 206.125 22.832031 C 207.003906 22.832031 209.753906 21.375 211.171875 20.160156 C 211.664062 19.746094 213.152344 18.542969 214.492188 17.496094 C 215.832031 16.445312 217.628906 14.835938 218.492188 13.925781 C 219.351562 13.007812 220.953125 11.863281 222.066406 11.378906 C 224.894531 10.136719 229.796875 4.042969 229.796875 1.765625 C 229.796875 0.0195312 229.5625 -0.105469 226.933594 0.210938 " fill-opacity="1" fill-rule="nonzero"/></g><g fill="#000000" fill-opacity="1"><g transform="translate(110.189049, 105.745535)"><g><path d="M 2.46875 0.078125 C 2.15625 0.078125 1.878906 0.015625 1.640625 -0.109375 C 1.410156 -0.234375 1.234375 -0.40625 1.109375 -0.625 C 0.984375 -0.851562 0.921875 -1.109375 0.921875 -1.390625 C 0.921875 -1.660156 0.984375 -1.90625 1.109375 -2.125 C 1.234375 -2.351562 1.410156 -2.53125 1.640625 -2.65625 C 1.878906 -2.789062 2.15625 -2.859375 2.46875 -2.859375 C 2.78125 -2.859375 3.054688 -2.796875 3.296875 -2.671875 C 3.535156 -2.546875 3.71875 -2.367188 3.84375 -2.140625 C 3.96875 -1.921875 4.03125 -1.671875 4.03125 -1.390625 C 4.03125 -0.960938 3.882812 -0.609375 3.59375 -0.328125 C 3.3125 -0.0546875 2.9375 0.078125 2.46875 0.078125 Z M 2.46875 0.078125 "/></g></g></g></svg>