<svg width="229" height="210" viewBox="0 0 229 210" fill="none" xmlns="http://www.w3.org/2000/svg">
<path d="M161.824 98.0129C157.726 108.657 110.384 140.99 98.8352 140.99C93.2202 140.99 88.6164 143.305 88.6164 146.073C88.6164 153.471 82.549 152.22 69.6691 142.161C59.9826 134.603 58.998 130.745 62.697 115.47C69.5893 86.7297 77.7058 69.4589 84.2522 69.4589C87.6052 69.4589 88.8027 67.9421 86.9665 66.1059C85.1037 64.2431 88.1374 59.5063 93.7524 55.5944C102.561 49.4206 106.898 49.873 127.469 58.9208C140.402 64.6689 153.069 68.1284 155.597 66.5849C158.099 65.0148 160.307 65.6269 160.547 67.8889C160.76 70.1774 161.744 76.2714 162.729 81.5139C163.714 86.7297 163.314 94.1276 161.824 98.0129ZM226.995 53.7849C226.064 47.6643 197.936 19.5627 187.105 13.8945C180.851 10.6479 166.508 7.40131 155.198 6.76264C143.888 6.15058 134.627 4.04828 134.627 2.15888C134.601 -2.76422 110.172 1.12103 86.0883 9.87616C74.8317 13.9211 66.2363 19.8288 66.9282 22.9423C67.6201 26.0558 64.7727 28.6105 60.5148 28.6105C56.3103 28.6105 52.8774 30.6064 52.8774 33.1079C52.8774 35.5827 48.3002 38.8027 42.6586 40.2663C30.0715 43.5661 11.071 84.8137 9.2082 112.729C8.46309 123.879 5.53584 133.805 2.68843 134.737C-0.478313 135.774 -0.877483 142.001 1.65059 150.783C7.98409 172.844 17.1384 187.587 22.434 184.287C25.1484 182.637 25.7605 185.165 23.8711 190.088C21.5559 196.022 22.4074 197.672 26.4523 195.197C29.7522 193.148 32.4133 193.468 32.4133 195.916C32.4133 198.338 38.7468 202.835 46.4641 205.895C60.6213 211.51 88.4035 210.951 116.718 204.565C125.154 202.622 141.041 191.578 152.058 179.976C163.075 168.373 169.089 162.891 165.497 167.814C160.467 174.627 160.387 176.756 165.097 176.756C168.504 176.756 172.469 172.445 173.826 167.123C175.396 161.135 179.601 158.341 185.003 159.778C193.838 162.066 218.4 144.769 213.397 139.766C211.853 138.223 214.94 128.935 220.209 119.089C228.219 104.133 230.907 78.3205 226.995 53.7849Z" fill="#1A1A1A"/>
</svg>
