<svg width="37" height="48" viewBox="0 0 37 48" fill="none" xmlns="http://www.w3.org/2000/svg">
<path d="M6.80727 38.8698C6.47393 39.4167 5.99998 39.8646 5.75518 39.8646C5.5156 39.8646 5.32289 39.4167 5.32289 38.8698C5.32289 38.3281 5.79164 37.8802 6.37498 37.8802C6.94789 37.8802 7.15102 38.3281 6.80727 38.8698ZM7.30727 9.07292C6.41143 8.4948 6.29164 8.10938 6.99998 8.09896C7.64581 8.09375 8.45831 8.52604 8.79164 9.07292C9.56248 10.3125 9.21352 10.3125 7.30727 9.07292ZM34.3385 7.84375C35.625 7.41667 34.5625 2.125 33.1927 2.125C32.0729 2.125 25.1666 8.76042 22.9635 11.9531C21.3489 14.2865 21.2604 14.3021 18.625 12.5729C15.3802 10.4479 11.3541 6.01042 11.3125 4.51563C11.2916 3.91667 9.73956 2.60417 7.85414 1.58334C4.5156 -0.213539 4.37498 -0.213539 2.3906 1.58334C0.088517 3.66667 -0.473983 8.61459 1.68748 7.78646C2.41664 7.50521 3.6406 7.67188 4.41664 8.15625C5.59893 8.91146 5.58331 9.0625 4.3281 9.14063C3.51039 9.19271 4.17706 9.84896 5.81248 10.6042C7.45831 11.349 8.20831 11.9844 7.49998 12.0104C6.78123 12.0313 6.4531 12.474 6.7656 12.9792C7.0781 13.4948 6.88539 14.1875 6.33331 14.5313C4.30206 15.7813 5.40623 18.0417 9.29164 20.6198C13.3177 23.276 14.3489 24.9635 11.9531 24.9635C11.2344 24.9635 9.92185 26.4219 9.04164 28.1927C4.61977 37.1302 3.5781 39.6615 2.9531 43.0156C2.39581 46.0313 2.58331 46.7292 4.04685 47.0469C6.04685 47.4896 12.0521 42.5417 17.2291 36.1875C21.1614 31.3594 22.3229 31.6979 25.3958 38.6198C27.0416 42.3385 27.651 42.8438 30.4948 42.8438C32.276 42.8438 34.2656 42.3021 34.9219 41.651C36.2448 40.3281 36.5208 37.276 35.3698 36.6354C34.9583 36.401 35.1927 36.3542 35.8802 36.526C37.9844 37.0365 36.6771 30.4479 34.026 27.1354C32.7135 25.4948 30.6614 23.6875 29.4635 23.1198C27.1666 22.026 26.651 18.0156 28.8073 18.0156C29.4791 18.0156 30.5885 16.4531 31.276 14.5365C31.9687 12.625 32.9427 11.0573 33.4323 11.0573C33.9323 11.0573 34.0885 10.4167 33.7916 9.63542C33.4948 8.85417 33.7291 8.04167 34.3385 7.84375Z" fill="#1A1A1A"/>
</svg>
